G04 DipTrace 3.0.0.2*
G04 BottomSilk.gbr*
%MOMM*%
G04 #@! TF.FileFunction,Legend,Bot*
G04 #@! TF.Part,Single*
%ADD10C,0.254*%
%ADD13C,0.06667*%
%ADD52C,0.15686*%
%ADD53C,0.07843*%
%FSLAX35Y35*%
G04*
G71*
G90*
G75*
G01*
G04 BotSilk*
%LPD*%
X22000Y1936000D2*
D10*
X2684000D1*
Y11000D1*
X22000D1*
Y1936000D1*
X149060Y1324607D2*
D13*
X152393D1*
X147521Y1321273D2*
X153796D1*
X146560Y1317940D2*
X154630D1*
X146051Y1314607D2*
X153706D1*
X145727Y1311273D2*
X152393D1*
X162393D2*
X165727D1*
X160855Y1307940D2*
X167265D1*
X159897Y1304607D2*
X168223D1*
X72393Y1301273D2*
X82393D1*
X159413D2*
X168707D1*
X72393Y1297940D2*
X82393D1*
X159198D2*
X168922D1*
X72393Y1294607D2*
X82393D1*
X159111D2*
X169009D1*
X72393Y1291273D2*
X82393D1*
X159078D2*
X169042D1*
X72393Y1287940D2*
X82393D1*
X159066D2*
X169054D1*
X72393Y1284607D2*
X82393D1*
X159062D2*
X169058D1*
X72393Y1281273D2*
X82393D1*
X159074D2*
X169046D1*
X72393Y1277940D2*
X82406D1*
X159200D2*
X168920D1*
X72393Y1274607D2*
X82533D1*
X159715D2*
X168405D1*
X72393Y1271273D2*
X83048D1*
X160855D2*
X167265D1*
X72406Y1267940D2*
X84188D1*
X89060D2*
X95727D1*
X102393D2*
X109060D1*
X119060D2*
X122393D1*
X132393D2*
X139060D1*
X145727D2*
X152393D1*
X162393D2*
X165727D1*
X72533Y1264607D2*
X153741D1*
X73048Y1261273D2*
X153602D1*
X74188Y1257940D2*
X153050D1*
X75727Y1254607D2*
X79060D1*
X89060D2*
X95727D1*
X105727D2*
X109060D1*
X119060D2*
X122393D1*
X132393D2*
X135727D1*
X149060D2*
X152393D1*
X75727Y1234607D2*
X79060D1*
X89060D2*
X95727D1*
X105727D2*
X109060D1*
X119060D2*
X122393D1*
X132393D2*
X135727D1*
X145727D2*
X152393D1*
X162393D2*
X165727D1*
X74324Y1231273D2*
X167129D1*
X73490Y1227940D2*
X167963D1*
X74414Y1224607D2*
X167039D1*
X75727Y1221273D2*
X82393D1*
X89060D2*
X99047D1*
X105727D2*
X109060D1*
X119060D2*
X125727D1*
X132393D2*
X139060D1*
X145727D2*
X152393D1*
X162393D2*
X165727D1*
X89060Y1217940D2*
X98920D1*
X89060Y1214607D2*
X98405D1*
X89060Y1211273D2*
X97265D1*
X89060Y1207940D2*
X95727D1*
X102393Y1204607D2*
X112393D1*
X102393Y1201273D2*
X112393D1*
X102393Y1197940D2*
X112393D1*
X102393Y1194607D2*
X112393D1*
X119060Y1191273D2*
X122393D1*
X117508Y1187940D2*
X123945D1*
X116424Y1184607D2*
X125029D1*
X115423Y1181273D2*
X126030D1*
X75727Y1177940D2*
X79060D1*
X89060D2*
X95727D1*
X105727D2*
X109060D1*
X114061D2*
X127392D1*
X132393D2*
X135727D1*
X145727D2*
X152393D1*
X162393D2*
X165727D1*
X74324Y1174607D2*
X167129D1*
X73490Y1171273D2*
X167963D1*
X74414Y1167940D2*
X167039D1*
X75727Y1164607D2*
X79060D1*
X89060D2*
X95727D1*
X105727D2*
X109060D1*
X119060D2*
X122393D1*
X132393D2*
X139060D1*
X145727D2*
X152393D1*
X162393D2*
X165727D1*
X119060Y1144607D2*
X122393D1*
X132393D2*
X139060D1*
X149060D2*
X152393D1*
X162393D2*
X165727D1*
X113987Y1141273D2*
X167129D1*
X109205Y1137940D2*
X167963D1*
X105299Y1134607D2*
X167039D1*
X103962Y1131273D2*
X125727D1*
X132393D2*
X135727D1*
X145727D2*
X152393D1*
X162393D2*
X165727D1*
X92393Y1127940D2*
X95727D1*
X104612D2*
X125727D1*
X90854Y1124607D2*
X97413D1*
X105727D2*
X109060D1*
X115727D2*
X125727D1*
X89894Y1121273D2*
X97845D1*
X115727D2*
X125727D1*
X75727Y1117940D2*
X82393D1*
X89384D2*
X96270D1*
X115727D2*
X125727D1*
X74324Y1114607D2*
X83956D1*
X89060D2*
X92272D1*
X115727D2*
X125727D1*
X73490Y1111273D2*
X88227D1*
X115727D2*
X125727D1*
X74414Y1107940D2*
X83956D1*
X115727D2*
X125727D1*
X75727Y1104607D2*
X82393D1*
X92393D2*
X95727D1*
X115714D2*
X125727D1*
X90991Y1101273D2*
X97129D1*
X115587D2*
X125727D1*
X90157Y1097940D2*
X97963D1*
X115072D2*
X125740D1*
X91081Y1094607D2*
X97039D1*
X105727D2*
X109060D1*
X113932D2*
X125867D1*
X92393Y1091273D2*
X95727D1*
X104040D2*
X126382D1*
X103660Y1087940D2*
X127521D1*
X132393D2*
X135727D1*
X145727D2*
X152393D1*
X162393D2*
X165727D1*
X105535Y1084607D2*
X167129D1*
X110085Y1081273D2*
X167963D1*
X114745Y1077940D2*
X167039D1*
X119060Y1074607D2*
X125727D1*
X132393D2*
X139060D1*
X149060D2*
X152393D1*
X162393D2*
X165727D1*
X75727Y1057940D2*
X79060D1*
X89060D2*
X95727D1*
X105727D2*
X109060D1*
X119060D2*
X122393D1*
X132393D2*
X139060D1*
X74324Y1054607D2*
X140623D1*
X73490Y1051273D2*
X142393D1*
X74414Y1047940D2*
X140623D1*
X75727Y1044607D2*
X79060D1*
X89060D2*
X95727D1*
X105727D2*
X109060D1*
X119060D2*
X122393D1*
X132393D2*
X139060D1*
X145727Y1041273D2*
X152393D1*
X145727Y1037940D2*
X153705D1*
X145727Y1034607D2*
X153286D1*
X145727Y1031273D2*
X152393D1*
X159060Y1027940D2*
X169060D1*
X159060Y1024607D2*
X169060D1*
X159060Y1021273D2*
X169060D1*
X159060Y1017940D2*
X169060D1*
X145727Y1014607D2*
X152393D1*
X145863Y1011273D2*
X153796D1*
X146381Y1007940D2*
X154630D1*
X147521Y1004607D2*
X153706D1*
X75727Y1001273D2*
X79060D1*
X89060D2*
X95727D1*
X105727D2*
X109060D1*
X119060D2*
X122393D1*
X132393D2*
X139060D1*
X149060D2*
X152393D1*
X74324Y997940D2*
X140623D1*
X73490Y994607D2*
X142393D1*
X74414Y991273D2*
X140623D1*
X75727Y987940D2*
X79060D1*
X89060D2*
X95727D1*
X105727D2*
X109060D1*
X119060D2*
X125727D1*
X132393D2*
X139060D1*
X119060Y967940D2*
X122393D1*
X132393D2*
X139060D1*
X149060D2*
X152393D1*
X162393D2*
X165727D1*
X113987Y964607D2*
X167129D1*
X109205Y961273D2*
X167963D1*
X105299Y957940D2*
X167039D1*
X103962Y954607D2*
X125727D1*
X132393D2*
X135727D1*
X145727D2*
X152393D1*
X162393D2*
X165727D1*
X92393Y951273D2*
X95727D1*
X104612D2*
X125727D1*
X90854Y947940D2*
X97413D1*
X105727D2*
X109060D1*
X115727D2*
X125727D1*
X89894Y944607D2*
X97845D1*
X115727D2*
X125727D1*
X75727Y941273D2*
X82393D1*
X89384D2*
X96270D1*
X115727D2*
X125727D1*
X74324Y937940D2*
X83956D1*
X89060D2*
X92272D1*
X115727D2*
X125727D1*
X73490Y934607D2*
X88227D1*
X115727D2*
X125727D1*
X74414Y931273D2*
X83956D1*
X115727D2*
X125727D1*
X75727Y927940D2*
X82393D1*
X92393D2*
X95727D1*
X115714D2*
X125727D1*
X90991Y924607D2*
X97129D1*
X115587D2*
X125727D1*
X90157Y921273D2*
X97963D1*
X115072D2*
X125740D1*
X91081Y917940D2*
X97039D1*
X105727D2*
X109060D1*
X113932D2*
X125867D1*
X92393Y914607D2*
X95727D1*
X104040D2*
X126382D1*
X103660Y911273D2*
X127521D1*
X132393D2*
X135727D1*
X145727D2*
X152393D1*
X162393D2*
X165727D1*
X105535Y907940D2*
X167129D1*
X110085Y904607D2*
X167963D1*
X114745Y901273D2*
X167039D1*
X119060Y897940D2*
X125727D1*
X132393D2*
X139060D1*
X149060D2*
X152393D1*
X162393D2*
X165727D1*
X75727Y877940D2*
X79060D1*
X89060D2*
X95727D1*
X105727D2*
X109060D1*
X119060D2*
X122393D1*
X132393D2*
X135727D1*
X145727D2*
X152393D1*
X162393D2*
X165727D1*
X74188Y874607D2*
X167129D1*
X73231Y871273D2*
X167963D1*
X72746Y867940D2*
X167039D1*
X72531Y864607D2*
X82393D1*
X89060D2*
X92393D1*
X102393D2*
X109060D1*
X119060D2*
X122393D1*
X132393D2*
X135727D1*
X145727D2*
X152393D1*
X162393D2*
X165727D1*
X72444Y861273D2*
X82393D1*
X72411Y857940D2*
X82393D1*
X72399Y854607D2*
X82393D1*
X115727D2*
X125727D1*
X72395Y851273D2*
X82393D1*
X115727D2*
X130787D1*
X72394Y847940D2*
X82393D1*
X115727D2*
X135509D1*
X72394Y844607D2*
X82393D1*
X115727D2*
X139316D1*
X72393Y841273D2*
X82393D1*
X115727D2*
X141248D1*
X72393Y837940D2*
X82393D1*
X115727D2*
X135680D1*
X72406Y834607D2*
X82380D1*
X115740D2*
X131070D1*
X145727D2*
X152393D1*
X72533Y831273D2*
X82253D1*
X115867D2*
X127647D1*
X145863D2*
X153796D1*
X73048Y827940D2*
X81738D1*
X116382D2*
X126020D1*
X146381D2*
X154630D1*
X74188Y824607D2*
X80599D1*
X117521D2*
X124294D1*
X147521D2*
X153706D1*
X75727Y821273D2*
X79060D1*
X92393D2*
X95727D1*
X105727D2*
X109060D1*
X119060D2*
X122393D1*
X149060D2*
X152393D1*
X162393D2*
X165727D1*
X90991Y817940D2*
X110462D1*
X160991D2*
X167129D1*
X90157Y814607D2*
X111296D1*
X160157D2*
X167963D1*
X91081Y811273D2*
X110372D1*
X161081D2*
X167039D1*
X92393Y807940D2*
X95727D1*
X105727D2*
X109060D1*
X162393D2*
X165727D1*
X75727Y787940D2*
X79060D1*
X89060D2*
X95727D1*
X105727D2*
X109060D1*
X119060D2*
X122393D1*
X132393D2*
X135727D1*
X145727D2*
X152393D1*
X162393D2*
X165727D1*
X74188Y784607D2*
X167129D1*
X73231Y781273D2*
X167963D1*
X72746Y777940D2*
X167039D1*
X72531Y774607D2*
X82393D1*
X89060D2*
X92393D1*
X102393D2*
X109060D1*
X119060D2*
X122393D1*
X132393D2*
X135727D1*
X145727D2*
X152393D1*
X162393D2*
X165727D1*
X72444Y771273D2*
X82393D1*
X72411Y767940D2*
X82393D1*
X72399Y764607D2*
X82393D1*
X115727D2*
X125727D1*
X72395Y761273D2*
X82393D1*
X115727D2*
X130787D1*
X72394Y757940D2*
X82393D1*
X115727D2*
X135509D1*
X72394Y754607D2*
X82393D1*
X115727D2*
X139316D1*
X72393Y751273D2*
X82393D1*
X115727D2*
X141248D1*
X72393Y747940D2*
X82393D1*
X115727D2*
X135680D1*
X72406Y744607D2*
X82380D1*
X115740D2*
X131070D1*
X145727D2*
X152393D1*
X72533Y741273D2*
X82253D1*
X115867D2*
X127647D1*
X145863D2*
X153796D1*
X73048Y737940D2*
X81738D1*
X116382D2*
X126020D1*
X146381D2*
X154630D1*
X74188Y734607D2*
X80599D1*
X117521D2*
X124294D1*
X147521D2*
X153706D1*
X75727Y731273D2*
X79060D1*
X92393D2*
X95727D1*
X105727D2*
X109060D1*
X119060D2*
X122393D1*
X149060D2*
X152393D1*
X162393D2*
X165727D1*
X90991Y727940D2*
X110462D1*
X160991D2*
X167129D1*
X90157Y724607D2*
X111296D1*
X160157D2*
X167963D1*
X91081Y721273D2*
X110372D1*
X161081D2*
X167039D1*
X92393Y717940D2*
X95727D1*
X105727D2*
X109060D1*
X162393D2*
X165727D1*
X92393Y701273D2*
X95727D1*
X105727D2*
X109060D1*
X119060D2*
X122393D1*
X132393D2*
X139060D1*
X149060D2*
X152393D1*
X90991Y697940D2*
X153956D1*
X90157Y694607D2*
X155727D1*
X91081Y691273D2*
X153956D1*
X92393Y687940D2*
X95727D1*
X105727D2*
X109060D1*
X119060D2*
X125727D1*
X132393D2*
X139060D1*
X149060D2*
X152393D1*
X162393D2*
X165727D1*
X72393Y684607D2*
X82393D1*
X160855D2*
X167265D1*
X72393Y681273D2*
X82393D1*
X159897D2*
X168223D1*
X72393Y677940D2*
X82393D1*
X159413D2*
X168707D1*
X72393Y674607D2*
X82393D1*
X159198D2*
X168922D1*
X72393Y671273D2*
X82393D1*
X159111D2*
X169009D1*
X72393Y667940D2*
X82393D1*
X159078D2*
X169042D1*
X72393Y664607D2*
X82393D1*
X159066D2*
X169054D1*
X72393Y661273D2*
X82393D1*
X159062D2*
X169058D1*
X72406Y657940D2*
X82380D1*
X159074D2*
X169046D1*
X72533Y654607D2*
X82253D1*
X159200D2*
X168920D1*
X73048Y651273D2*
X81738D1*
X159715D2*
X168405D1*
X74188Y647940D2*
X80599D1*
X160855D2*
X167265D1*
X75727Y644607D2*
X79060D1*
X92393D2*
X95727D1*
X105727D2*
X109060D1*
X119060D2*
X125727D1*
X132393D2*
X139060D1*
X149060D2*
X152393D1*
X162393D2*
X165727D1*
X90991Y641273D2*
X153397D1*
X90157Y637940D2*
X154206D1*
X91081Y634607D2*
X153505D1*
X92393Y631273D2*
X95727D1*
X105727D2*
X109060D1*
X119060D2*
X125727D1*
X132393D2*
X139060D1*
X149060D2*
X152393D1*
X149060Y1324607D2*
X147521Y1321273D1*
X146560Y1317940D1*
X146051Y1314607D1*
X145727Y1311273D1*
X152393Y1324607D2*
X153796Y1321273D1*
X154630Y1317940D1*
X153706Y1314607D1*
X152393Y1311273D1*
X162393D2*
X160855Y1307940D1*
X159897Y1304607D1*
X159413Y1301273D1*
X159198Y1297940D1*
X159111Y1294607D1*
X159078Y1291273D1*
X159066Y1287940D1*
X159062Y1284607D1*
X159074Y1281273D1*
X159200Y1277940D1*
X159715Y1274607D1*
X160855Y1271273D1*
X162393Y1267940D1*
X165727Y1311273D2*
X167265Y1307940D1*
X168223Y1304607D1*
X168707Y1301273D1*
X168922Y1297940D1*
X169009Y1294607D1*
X169042Y1291273D1*
X169054Y1287940D1*
X169058Y1284607D1*
X169046Y1281273D1*
X168920Y1277940D1*
X168405Y1274607D1*
X167265Y1271273D1*
X165727Y1267940D1*
X72393Y1301273D2*
Y1297940D1*
Y1294607D1*
Y1291273D1*
Y1287940D1*
Y1284607D1*
Y1281273D1*
Y1277940D1*
Y1274607D1*
Y1271273D1*
X72406Y1267940D1*
X72533Y1264607D1*
X73048Y1261273D1*
X74188Y1257940D1*
X75727Y1254607D1*
X82393Y1301273D2*
Y1297940D1*
Y1294607D1*
Y1291273D1*
Y1287940D1*
Y1284607D1*
Y1281273D1*
X82406Y1277940D1*
X82533Y1274607D1*
X83048Y1271273D1*
X84188Y1267940D1*
X85727Y1264607D1*
X89060Y1267940D2*
X85727Y1264607D1*
X95727Y1267940D2*
X99060Y1264607D1*
X102393Y1267940D2*
X99060Y1264607D1*
X109060Y1267940D2*
X112393Y1264607D1*
X119060Y1267940D2*
X115727Y1264607D1*
X122393Y1267940D2*
X125727Y1264607D1*
X132393Y1267940D2*
X129060Y1264607D1*
X139060Y1267940D2*
X142393Y1264607D1*
X145727Y1267940D2*
X142393Y1264607D1*
X152393Y1267940D2*
X153741Y1264607D1*
X153602Y1261273D1*
X153050Y1257940D1*
X152393Y1254607D1*
X82393Y1257940D2*
X79060Y1254607D1*
X85727Y1257940D2*
X89060Y1254607D1*
X99060Y1257940D2*
X95727Y1254607D1*
X102393Y1257940D2*
X105727Y1254607D1*
X112393Y1257940D2*
X109060Y1254607D1*
X115727Y1257940D2*
X119060Y1254607D1*
X125727Y1257940D2*
X122393Y1254607D1*
X129060Y1257940D2*
X132393Y1254607D1*
X139060Y1257940D2*
X135727Y1254607D1*
X145727Y1257940D2*
X149060Y1254607D1*
X75727Y1234607D2*
X74324Y1231273D1*
X73490Y1227940D1*
X74414Y1224607D1*
X75727Y1221273D1*
X79060Y1234607D2*
X82393Y1231273D1*
X89060Y1234607D2*
X85727Y1231273D1*
X95727Y1234607D2*
X99060Y1231273D1*
X105727Y1234607D2*
X102393Y1231273D1*
X109060Y1234607D2*
X112393Y1231273D1*
X119060Y1234607D2*
X115727Y1231273D1*
X122393Y1234607D2*
X125727Y1231273D1*
X132393Y1234607D2*
X129060Y1231273D1*
X135727Y1234607D2*
X139060Y1231273D1*
X145727Y1234607D2*
X142393Y1231273D1*
X152393Y1234607D2*
X155727Y1231273D1*
X162393Y1234607D2*
X159060Y1231273D1*
X165727Y1234607D2*
X167129Y1231273D1*
X167963Y1227940D1*
X167039Y1224607D1*
X165727Y1221273D1*
X85727Y1224607D2*
X82393Y1221273D1*
X89060Y1224607D2*
Y1221273D1*
Y1217940D1*
Y1214607D1*
Y1211273D1*
Y1207940D1*
X99060Y1224607D2*
X99047Y1221273D1*
X98920Y1217940D1*
X98405Y1214607D1*
X97265Y1211273D1*
X95727Y1207940D1*
X102393Y1224607D2*
X105727Y1221273D1*
X112393Y1224607D2*
X109060Y1221273D1*
X115727Y1224607D2*
X119060Y1221273D1*
X129060Y1224607D2*
X125727Y1221273D1*
X129060Y1224607D2*
X132393Y1221273D1*
X142393Y1224607D2*
X139060Y1221273D1*
X142393Y1224607D2*
X145727Y1221273D1*
X155727Y1224607D2*
X152393Y1221273D1*
X159060Y1224607D2*
X162393Y1221273D1*
X102393Y1204607D2*
Y1201273D1*
Y1197940D1*
Y1194607D1*
X112393Y1204607D2*
Y1201273D1*
Y1197940D1*
Y1194607D1*
X119060Y1191273D2*
X117508Y1187940D1*
X116424Y1184607D1*
X115423Y1181273D1*
X114061Y1177940D1*
X112393Y1174607D1*
X122393Y1191273D2*
X123945Y1187940D1*
X125029Y1184607D1*
X126030Y1181273D1*
X127392Y1177940D1*
X129060Y1174607D1*
X75727Y1177940D2*
X74324Y1174607D1*
X73490Y1171273D1*
X74414Y1167940D1*
X75727Y1164607D1*
X79060Y1177940D2*
X82393Y1174607D1*
X89060Y1177940D2*
X85727Y1174607D1*
X95727Y1177940D2*
X99060Y1174607D1*
X105727Y1177940D2*
X102393Y1174607D1*
X109060Y1177940D2*
X112393Y1174607D1*
X132393Y1177940D2*
X129060Y1174607D1*
X135727Y1177940D2*
X139060Y1174607D1*
X145727Y1177940D2*
X142393Y1174607D1*
X152393Y1177940D2*
X155727Y1174607D1*
X162393Y1177940D2*
X159060Y1174607D1*
X165727Y1177940D2*
X167129Y1174607D1*
X167963Y1171273D1*
X167039Y1167940D1*
X165727Y1164607D1*
X82393Y1167940D2*
X79060Y1164607D1*
X85727Y1167940D2*
X89060Y1164607D1*
X99060Y1167940D2*
X95727Y1164607D1*
X102393Y1167940D2*
X105727Y1164607D1*
X112393Y1167940D2*
X109060Y1164607D1*
X115727Y1167940D2*
X119060Y1164607D1*
X125727Y1167940D2*
X122393Y1164607D1*
X129060Y1167940D2*
X132393Y1164607D1*
X142393Y1167940D2*
X139060Y1164607D1*
X142393Y1167940D2*
X145727Y1164607D1*
X155727Y1167940D2*
X152393Y1164607D1*
X159060Y1167940D2*
X162393Y1164607D1*
X119060Y1144607D2*
X113987Y1141273D1*
X109205Y1137940D1*
X105299Y1134607D1*
X103962Y1131273D1*
X104612Y1127940D1*
X105727Y1124607D1*
X122393Y1144607D2*
X125727Y1141273D1*
X132393Y1144607D2*
X129060Y1141273D1*
X139060Y1144607D2*
X142393Y1141273D1*
X149060Y1144607D2*
X145727Y1141273D1*
X152393Y1144607D2*
X155727Y1141273D1*
X162393Y1144607D2*
X159060Y1141273D1*
X165727Y1144607D2*
X167129Y1141273D1*
X167963Y1137940D1*
X167039Y1134607D1*
X165727Y1131273D1*
X125727Y1134607D2*
Y1131273D1*
Y1127940D1*
Y1124607D1*
Y1121273D1*
Y1117940D1*
Y1114607D1*
Y1111273D1*
Y1107940D1*
Y1104607D1*
Y1101273D1*
X125740Y1097940D1*
X125867Y1094607D1*
X126382Y1091273D1*
X127521Y1087940D1*
X129060Y1084607D1*
Y1134607D2*
X132393Y1131273D1*
X139060Y1134607D2*
X135727Y1131273D1*
X142393Y1134607D2*
X145727Y1131273D1*
X155727Y1134607D2*
X152393Y1131273D1*
X159060Y1134607D2*
X162393Y1131273D1*
X92393Y1127940D2*
X90854Y1124607D1*
X89894Y1121273D1*
X89384Y1117940D1*
X89060Y1114607D1*
X95727Y1127940D2*
X97413Y1124607D1*
X97845Y1121273D1*
X96270Y1117940D1*
X92272Y1114607D1*
X88227Y1111273D1*
X85013Y1107940D1*
X82393Y1104607D1*
X112393Y1127940D2*
X109060Y1124607D1*
X115727Y1127940D2*
Y1124607D1*
Y1121273D1*
Y1117940D1*
Y1114607D1*
Y1111273D1*
Y1107940D1*
X115714Y1104607D1*
X115587Y1101273D1*
X115072Y1097940D1*
X113932Y1094607D1*
X112393Y1091273D1*
X75727Y1117940D2*
X74324Y1114607D1*
X73490Y1111273D1*
X74414Y1107940D1*
X75727Y1104607D1*
X82393Y1117940D2*
X83956Y1114607D1*
X85727Y1111273D1*
X83956Y1107940D1*
X82393Y1104607D1*
X92393D2*
X90991Y1101273D1*
X90157Y1097940D1*
X91081Y1094607D1*
X92393Y1091273D1*
X95727Y1104607D2*
X97129Y1101273D1*
X97963Y1097940D1*
X97039Y1094607D1*
X95727Y1091273D1*
X105727Y1094607D2*
X104040Y1091273D1*
X103660Y1087940D1*
X105535Y1084607D1*
X110085Y1081273D1*
X114745Y1077940D1*
X119060Y1074607D1*
X109060Y1094607D2*
X112393Y1091273D1*
X132393Y1087940D2*
X129060Y1084607D1*
X135727Y1087940D2*
X139060Y1084607D1*
X145727Y1087940D2*
X142393Y1084607D1*
X152393Y1087940D2*
X155727Y1084607D1*
X162393Y1087940D2*
X159060Y1084607D1*
X165727Y1087940D2*
X167129Y1084607D1*
X167963Y1081273D1*
X167039Y1077940D1*
X165727Y1074607D1*
X129060Y1077940D2*
X125727Y1074607D1*
X129060Y1077940D2*
X132393Y1074607D1*
X142393Y1077940D2*
X139060Y1074607D1*
X145727Y1077940D2*
X149060Y1074607D1*
X155727Y1077940D2*
X152393Y1074607D1*
X159060Y1077940D2*
X162393Y1074607D1*
X75727Y1057940D2*
X74324Y1054607D1*
X73490Y1051273D1*
X74414Y1047940D1*
X75727Y1044607D1*
X79060Y1057940D2*
X82393Y1054607D1*
X89060Y1057940D2*
X85727Y1054607D1*
X95727Y1057940D2*
X99060Y1054607D1*
X105727Y1057940D2*
X102393Y1054607D1*
X109060Y1057940D2*
X112393Y1054607D1*
X119060Y1057940D2*
X115727Y1054607D1*
X122393Y1057940D2*
X125727Y1054607D1*
X132393Y1057940D2*
X129060Y1054607D1*
X139060Y1057940D2*
X140623Y1054607D1*
X142393Y1051273D1*
X140623Y1047940D1*
X139060Y1044607D1*
X82393Y1047940D2*
X79060Y1044607D1*
X85727Y1047940D2*
X89060Y1044607D1*
X99060Y1047940D2*
X95727Y1044607D1*
X102393Y1047940D2*
X105727Y1044607D1*
X112393Y1047940D2*
X109060Y1044607D1*
X115727Y1047940D2*
X119060Y1044607D1*
X125727Y1047940D2*
X122393Y1044607D1*
X129060Y1047940D2*
X132393Y1044607D1*
X145727Y1041273D2*
Y1037940D1*
Y1034607D1*
Y1031273D1*
X152393Y1041273D2*
X153705Y1037940D1*
X153286Y1034607D1*
X152393Y1031273D1*
X159060Y1027940D2*
Y1024607D1*
Y1021273D1*
Y1017940D1*
X169060Y1027940D2*
Y1024607D1*
Y1021273D1*
Y1017940D1*
X145727Y1014607D2*
X145863Y1011273D1*
X146381Y1007940D1*
X147521Y1004607D1*
X149060Y1001273D1*
X152393Y1014607D2*
X153796Y1011273D1*
X154630Y1007940D1*
X153706Y1004607D1*
X152393Y1001273D1*
X75727D2*
X74324Y997940D1*
X73490Y994607D1*
X74414Y991273D1*
X75727Y987940D1*
X79060Y1001273D2*
X82393Y997940D1*
X89060Y1001273D2*
X85727Y997940D1*
X95727Y1001273D2*
X99060Y997940D1*
X105727Y1001273D2*
X102393Y997940D1*
X109060Y1001273D2*
X112393Y997940D1*
X119060Y1001273D2*
X115727Y997940D1*
X122393Y1001273D2*
X125727Y997940D1*
X132393Y1001273D2*
X129060Y997940D1*
X139060Y1001273D2*
X140623Y997940D1*
X142393Y994607D1*
X140623Y991273D1*
X139060Y987940D1*
X82393Y991273D2*
X79060Y987940D1*
X85727Y991273D2*
X89060Y987940D1*
X99060Y991273D2*
X95727Y987940D1*
X102393Y991273D2*
X105727Y987940D1*
X112393Y991273D2*
X109060Y987940D1*
X115727Y991273D2*
X119060Y987940D1*
X129060Y991273D2*
X125727Y987940D1*
X129060Y991273D2*
X132393Y987940D1*
X119060Y967940D2*
X113987Y964607D1*
X109205Y961273D1*
X105299Y957940D1*
X103962Y954607D1*
X104612Y951273D1*
X105727Y947940D1*
X122393Y967940D2*
X125727Y964607D1*
X132393Y967940D2*
X129060Y964607D1*
X139060Y967940D2*
X142393Y964607D1*
X149060Y967940D2*
X145727Y964607D1*
X152393Y967940D2*
X155727Y964607D1*
X162393Y967940D2*
X159060Y964607D1*
X165727Y967940D2*
X167129Y964607D1*
X167963Y961273D1*
X167039Y957940D1*
X165727Y954607D1*
X125727Y957940D2*
Y954607D1*
Y951273D1*
Y947940D1*
Y944607D1*
Y941273D1*
Y937940D1*
Y934607D1*
Y931273D1*
Y927940D1*
Y924607D1*
X125740Y921273D1*
X125867Y917940D1*
X126382Y914607D1*
X127521Y911273D1*
X129060Y907940D1*
Y957940D2*
X132393Y954607D1*
X139060Y957940D2*
X135727Y954607D1*
X142393Y957940D2*
X145727Y954607D1*
X155727Y957940D2*
X152393Y954607D1*
X159060Y957940D2*
X162393Y954607D1*
X92393Y951273D2*
X90854Y947940D1*
X89894Y944607D1*
X89384Y941273D1*
X89060Y937940D1*
X95727Y951273D2*
X97413Y947940D1*
X97845Y944607D1*
X96270Y941273D1*
X92272Y937940D1*
X88227Y934607D1*
X85013Y931273D1*
X82393Y927940D1*
X112393Y951273D2*
X109060Y947940D1*
X115727Y951273D2*
Y947940D1*
Y944607D1*
Y941273D1*
Y937940D1*
Y934607D1*
Y931273D1*
X115714Y927940D1*
X115587Y924607D1*
X115072Y921273D1*
X113932Y917940D1*
X112393Y914607D1*
X75727Y941273D2*
X74324Y937940D1*
X73490Y934607D1*
X74414Y931273D1*
X75727Y927940D1*
X82393Y941273D2*
X83956Y937940D1*
X85727Y934607D1*
X83956Y931273D1*
X82393Y927940D1*
X92393D2*
X90991Y924607D1*
X90157Y921273D1*
X91081Y917940D1*
X92393Y914607D1*
X95727Y927940D2*
X97129Y924607D1*
X97963Y921273D1*
X97039Y917940D1*
X95727Y914607D1*
X105727Y917940D2*
X104040Y914607D1*
X103660Y911273D1*
X105535Y907940D1*
X110085Y904607D1*
X114745Y901273D1*
X119060Y897940D1*
X109060Y917940D2*
X112393Y914607D1*
X132393Y911273D2*
X129060Y907940D1*
X135727Y911273D2*
X139060Y907940D1*
X145727Y911273D2*
X142393Y907940D1*
X152393Y911273D2*
X155727Y907940D1*
X162393Y911273D2*
X159060Y907940D1*
X165727Y911273D2*
X167129Y907940D1*
X167963Y904607D1*
X167039Y901273D1*
X165727Y897940D1*
X129060Y901273D2*
X125727Y897940D1*
X129060Y901273D2*
X132393Y897940D1*
X142393Y901273D2*
X139060Y897940D1*
X145727Y901273D2*
X149060Y897940D1*
X155727Y901273D2*
X152393Y897940D1*
X159060Y901273D2*
X162393Y897940D1*
X75727Y877940D2*
X74188Y874607D1*
X73231Y871273D1*
X72746Y867940D1*
X72531Y864607D1*
X72444Y861273D1*
X72411Y857940D1*
X72399Y854607D1*
X72395Y851273D1*
X72394Y847940D1*
Y844607D1*
X72393Y841273D1*
Y837940D1*
X72406Y834607D1*
X72533Y831273D1*
X73048Y827940D1*
X74188Y824607D1*
X75727Y821273D1*
X79060Y877940D2*
X82393Y874607D1*
X89060Y877940D2*
X85727Y874607D1*
X95727Y877940D2*
X99060Y874607D1*
X105727Y877940D2*
X102393Y874607D1*
X109060Y877940D2*
X112393Y874607D1*
X119060Y877940D2*
X115727Y874607D1*
X122393Y877940D2*
X125727Y874607D1*
X132393Y877940D2*
X129060Y874607D1*
X135727Y877940D2*
X139060Y874607D1*
X145727Y877940D2*
X142393Y874607D1*
X152393Y877940D2*
X155727Y874607D1*
X162393Y877940D2*
X159060Y874607D1*
X165727Y877940D2*
X167129Y874607D1*
X167963Y871273D1*
X167039Y867940D1*
X165727Y864607D1*
X82393Y867940D2*
Y864607D1*
Y861273D1*
Y857940D1*
Y854607D1*
Y851273D1*
Y847940D1*
Y844607D1*
Y841273D1*
Y837940D1*
X82380Y834607D1*
X82253Y831273D1*
X81738Y827940D1*
X80599Y824607D1*
X79060Y821273D1*
X85727Y867940D2*
X89060Y864607D1*
X95727Y867940D2*
X92393Y864607D1*
X99060Y867940D2*
X102393Y864607D1*
X112393Y867940D2*
X109060Y864607D1*
X115727Y867940D2*
X119060Y864607D1*
X125727Y867940D2*
X122393Y864607D1*
X129060Y867940D2*
X132393Y864607D1*
X139060Y867940D2*
X135727Y864607D1*
X142393Y867940D2*
X145727Y864607D1*
X155727Y867940D2*
X152393Y864607D1*
X159060Y867940D2*
X162393Y864607D1*
X115727Y854607D2*
Y851273D1*
Y847940D1*
Y844607D1*
Y841273D1*
Y837940D1*
X115740Y834607D1*
X115867Y831273D1*
X116382Y827940D1*
X117521Y824607D1*
X119060Y821273D1*
X125727Y854607D2*
X130787Y851273D1*
X135509Y847940D1*
X139316Y844607D1*
X141248Y841273D1*
X135680Y837940D1*
X131070Y834607D1*
X127647Y831273D1*
X126020Y827940D1*
X124294Y824607D1*
X122393Y821273D1*
X145727Y834607D2*
X145863Y831273D1*
X146381Y827940D1*
X147521Y824607D1*
X149060Y821273D1*
X152393Y834607D2*
X153796Y831273D1*
X154630Y827940D1*
X153706Y824607D1*
X152393Y821273D1*
X92393D2*
X90991Y817940D1*
X90157Y814607D1*
X91081Y811273D1*
X92393Y807940D1*
X95727Y821273D2*
X99060Y817940D1*
X105727Y821273D2*
X102393Y817940D1*
X109060Y821273D2*
X110462Y817940D1*
X111296Y814607D1*
X110372Y811273D1*
X109060Y807940D1*
X162393Y821273D2*
X160991Y817940D1*
X160157Y814607D1*
X161081Y811273D1*
X162393Y807940D1*
X165727Y821273D2*
X167129Y817940D1*
X167963Y814607D1*
X167039Y811273D1*
X165727Y807940D1*
X99060Y811273D2*
X95727Y807940D1*
X102393Y811273D2*
X105727Y807940D1*
X75727Y787940D2*
X74188Y784607D1*
X73231Y781273D1*
X72746Y777940D1*
X72531Y774607D1*
X72444Y771273D1*
X72411Y767940D1*
X72399Y764607D1*
X72395Y761273D1*
X72394Y757940D1*
Y754607D1*
X72393Y751273D1*
Y747940D1*
X72406Y744607D1*
X72533Y741273D1*
X73048Y737940D1*
X74188Y734607D1*
X75727Y731273D1*
X79060Y787940D2*
X82393Y784607D1*
X89060Y787940D2*
X85727Y784607D1*
X95727Y787940D2*
X99060Y784607D1*
X105727Y787940D2*
X102393Y784607D1*
X109060Y787940D2*
X112393Y784607D1*
X119060Y787940D2*
X115727Y784607D1*
X122393Y787940D2*
X125727Y784607D1*
X132393Y787940D2*
X129060Y784607D1*
X135727Y787940D2*
X139060Y784607D1*
X145727Y787940D2*
X142393Y784607D1*
X152393Y787940D2*
X155727Y784607D1*
X162393Y787940D2*
X159060Y784607D1*
X165727Y787940D2*
X167129Y784607D1*
X167963Y781273D1*
X167039Y777940D1*
X165727Y774607D1*
X82393Y777940D2*
Y774607D1*
Y771273D1*
Y767940D1*
Y764607D1*
Y761273D1*
Y757940D1*
Y754607D1*
Y751273D1*
Y747940D1*
X82380Y744607D1*
X82253Y741273D1*
X81738Y737940D1*
X80599Y734607D1*
X79060Y731273D1*
X85727Y777940D2*
X89060Y774607D1*
X95727Y777940D2*
X92393Y774607D1*
X99060Y777940D2*
X102393Y774607D1*
X112393Y777940D2*
X109060Y774607D1*
X115727Y777940D2*
X119060Y774607D1*
X125727Y777940D2*
X122393Y774607D1*
X129060Y777940D2*
X132393Y774607D1*
X139060Y777940D2*
X135727Y774607D1*
X142393Y777940D2*
X145727Y774607D1*
X155727Y777940D2*
X152393Y774607D1*
X159060Y777940D2*
X162393Y774607D1*
X115727Y764607D2*
Y761273D1*
Y757940D1*
Y754607D1*
Y751273D1*
Y747940D1*
X115740Y744607D1*
X115867Y741273D1*
X116382Y737940D1*
X117521Y734607D1*
X119060Y731273D1*
X125727Y764607D2*
X130787Y761273D1*
X135509Y757940D1*
X139316Y754607D1*
X141248Y751273D1*
X135680Y747940D1*
X131070Y744607D1*
X127647Y741273D1*
X126020Y737940D1*
X124294Y734607D1*
X122393Y731273D1*
X145727Y744607D2*
X145863Y741273D1*
X146381Y737940D1*
X147521Y734607D1*
X149060Y731273D1*
X152393Y744607D2*
X153796Y741273D1*
X154630Y737940D1*
X153706Y734607D1*
X152393Y731273D1*
X92393D2*
X90991Y727940D1*
X90157Y724607D1*
X91081Y721273D1*
X92393Y717940D1*
X95727Y731273D2*
X99060Y727940D1*
X105727Y731273D2*
X102393Y727940D1*
X109060Y731273D2*
X110462Y727940D1*
X111296Y724607D1*
X110372Y721273D1*
X109060Y717940D1*
X162393Y731273D2*
X160991Y727940D1*
X160157Y724607D1*
X161081Y721273D1*
X162393Y717940D1*
X165727Y731273D2*
X167129Y727940D1*
X167963Y724607D1*
X167039Y721273D1*
X165727Y717940D1*
X99060Y721273D2*
X95727Y717940D1*
X102393Y721273D2*
X105727Y717940D1*
X92393Y701273D2*
X90991Y697940D1*
X90157Y694607D1*
X91081Y691273D1*
X92393Y687940D1*
X95727Y701273D2*
X99060Y697940D1*
X105727Y701273D2*
X102393Y697940D1*
X109060Y701273D2*
X112393Y697940D1*
X119060Y701273D2*
X115727Y697940D1*
X122393Y701273D2*
X125727Y697940D1*
X132393Y701273D2*
X129060Y697940D1*
X139060Y701273D2*
X142393Y697940D1*
X149060Y701273D2*
X145727Y697940D1*
X152393Y701273D2*
X153956Y697940D1*
X155727Y694607D1*
X153956Y691273D1*
X152393Y687940D1*
X99060Y691273D2*
X95727Y687940D1*
X102393Y691273D2*
X105727Y687940D1*
X112393Y691273D2*
X109060Y687940D1*
X115727Y691273D2*
X119060Y687940D1*
X129060Y691273D2*
X125727Y687940D1*
X129060Y691273D2*
X132393Y687940D1*
X142393Y691273D2*
X139060Y687940D1*
X145727Y691273D2*
X149060Y687940D1*
X162393D2*
X160855Y684607D1*
X159897Y681273D1*
X159413Y677940D1*
X159198Y674607D1*
X159111Y671273D1*
X159078Y667940D1*
X159066Y664607D1*
X159062Y661273D1*
X159074Y657940D1*
X159200Y654607D1*
X159715Y651273D1*
X160855Y647940D1*
X162393Y644607D1*
X165727Y687940D2*
X167265Y684607D1*
X168223Y681273D1*
X168707Y677940D1*
X168922Y674607D1*
X169009Y671273D1*
X169042Y667940D1*
X169054Y664607D1*
X169058Y661273D1*
X169046Y657940D1*
X168920Y654607D1*
X168405Y651273D1*
X167265Y647940D1*
X165727Y644607D1*
X72393Y684607D2*
Y681273D1*
Y677940D1*
Y674607D1*
Y671273D1*
Y667940D1*
Y664607D1*
Y661273D1*
X72406Y657940D1*
X72533Y654607D1*
X73048Y651273D1*
X74188Y647940D1*
X75727Y644607D1*
X82393Y684607D2*
Y681273D1*
Y677940D1*
Y674607D1*
Y671273D1*
Y667940D1*
Y664607D1*
Y661273D1*
X82380Y657940D1*
X82253Y654607D1*
X81738Y651273D1*
X80599Y647940D1*
X79060Y644607D1*
X92393D2*
X90991Y641273D1*
X90157Y637940D1*
X91081Y634607D1*
X92393Y631273D1*
X95727Y644607D2*
X99060Y641273D1*
X105727Y644607D2*
X102393Y641273D1*
X109060Y644607D2*
X112393Y641273D1*
X119060Y644607D2*
X115727Y641273D1*
X125727Y644607D2*
X129060Y641273D1*
X132393Y644607D2*
X129060Y641273D1*
X139060Y644607D2*
X142393Y641273D1*
X149060Y644607D2*
X145727Y641273D1*
X152393Y644607D2*
X153397Y641273D1*
X154206Y637940D1*
X153505Y634607D1*
X152393Y631273D1*
X99060Y634607D2*
X95727Y631273D1*
X102393Y634607D2*
X105727Y631273D1*
X112393Y634607D2*
X109060Y631273D1*
X115727Y634607D2*
X119060Y631273D1*
X129060Y634607D2*
X125727Y631273D1*
X129060Y634607D2*
X132393Y631273D1*
X142393Y634607D2*
X139060Y631273D1*
X145727Y634607D2*
X149060Y631273D1*
X1914840Y1080745D2*
D52*
Y1037057D1*
X1909899Y1022457D1*
X1905069Y1017516D1*
X1895411Y1012686D1*
X1885640D1*
X1875982Y1017516D1*
X1871040Y1022457D1*
X1866211Y1037057D1*
Y1080745D1*
X1968298D1*
X1914840Y1046716D2*
X1968299Y1012686D1*
X1890582Y976372D2*
X1885752D1*
X1875982Y971543D1*
X1871152Y966714D1*
X1866323Y956943D1*
Y937514D1*
X1871152Y927856D1*
X1875982Y923026D1*
X1885752Y918085D1*
X1895411D1*
X1905182Y923026D1*
X1919669Y932685D1*
X1968299Y981314D1*
X1968298Y913256D1*
X501840Y1500745D2*
Y1457057D1*
X496899Y1442457D1*
X492069Y1437516D1*
X482411Y1432686D1*
X472640D1*
X462982Y1437516D1*
X458040Y1442457D1*
X453211Y1457057D1*
Y1500745D1*
X555298D1*
X501840Y1466716D2*
X555299Y1432686D1*
X453323Y1391543D2*
Y1338197D1*
X492182Y1367285D1*
Y1352685D1*
X497011Y1343026D1*
X501840Y1338197D1*
X516440Y1333256D1*
X526098D1*
X540698Y1338197D1*
X550469Y1347856D1*
X555299Y1362455D1*
Y1377055D1*
X550469Y1391543D1*
X545528Y1396372D1*
X535869Y1401314D1*
X842840Y1498159D2*
Y1454472D1*
X837899Y1439872D1*
X833069Y1434930D1*
X823411Y1430101D1*
X813640D1*
X803982Y1434930D1*
X799040Y1439872D1*
X794211Y1454472D1*
Y1498159D1*
X896298D1*
X842840Y1464130D2*
X896299Y1430101D1*
Y1350099D2*
X794323D1*
X862269Y1398729D1*
Y1325841D1*
X1154840Y1498745D2*
Y1455057D1*
X1149899Y1440457D1*
X1145069Y1435516D1*
X1135411Y1430686D1*
X1125640D1*
X1115982Y1435516D1*
X1111040Y1440457D1*
X1106211Y1455057D1*
Y1498745D1*
X1208298D1*
X1154840Y1464716D2*
X1208299Y1430686D1*
X1106323Y1341026D2*
Y1389543D1*
X1150011Y1394372D1*
X1145182Y1389543D1*
X1140240Y1374943D1*
Y1360456D1*
X1145182Y1345856D1*
X1154840Y1336085D1*
X1169440Y1331256D1*
X1179098D1*
X1193698Y1336085D1*
X1203469Y1345856D1*
X1208299Y1360455D1*
Y1374943D1*
X1203469Y1389543D1*
X1198528Y1394372D1*
X1188869Y1399314D1*
X2255840Y1080745D2*
Y1037057D1*
X2250899Y1022457D1*
X2246069Y1017516D1*
X2236411Y1012686D1*
X2226640D1*
X2216982Y1017516D1*
X2212040Y1022457D1*
X2207211Y1037057D1*
Y1080745D1*
X2309298D1*
X2255840Y1046716D2*
X2309299Y1012686D1*
Y961885D2*
X2207323Y913256D1*
Y981314D1*
X1892840Y1495689D2*
Y1452001D1*
X1887899Y1437401D1*
X1883069Y1432460D1*
X1873411Y1427630D1*
X1863640D1*
X1853982Y1432460D1*
X1849040Y1437401D1*
X1844211Y1452001D1*
Y1495689D1*
X1946298D1*
X1892840Y1461659D2*
X1946299Y1427630D1*
X1844323Y1371999D2*
X1849152Y1386487D1*
X1858811Y1391429D1*
X1868582D1*
X1878240Y1386487D1*
X1883182Y1376829D1*
X1888011Y1357399D1*
X1892840Y1342799D1*
X1902611Y1333141D1*
X1912269Y1328312D1*
X1926869D1*
X1936528Y1333141D1*
X1941469Y1337970D1*
X1946299Y1352570D1*
Y1371999D1*
X1941469Y1386487D1*
X1936528Y1391428D1*
X1926869Y1396258D1*
X1912269D1*
X1902611Y1391429D1*
X1892840Y1381658D1*
X1888011Y1367170D1*
X1883182Y1347741D1*
X1878240Y1337970D1*
X1868581Y1333141D1*
X1858811D1*
X1849152Y1337970D1*
X1844323Y1352570D1*
Y1371999D1*
X2255840Y1496330D2*
Y1452643D1*
X2250899Y1438043D1*
X2246069Y1433101D1*
X2236411Y1428272D1*
X2226640D1*
X2216982Y1433101D1*
X2212040Y1438043D1*
X2207211Y1452643D1*
Y1496330D1*
X2309298D1*
X2255840Y1462301D2*
X2309299Y1428272D1*
X2241240Y1333670D2*
X2255840Y1338612D1*
X2265611Y1348270D1*
X2270440Y1362870D1*
Y1367699D1*
X2265611Y1382299D1*
X2255840Y1391958D1*
X2241240Y1396899D1*
X2236411D1*
X2221811Y1391958D1*
X2212152Y1382299D1*
X2207323Y1367699D1*
Y1362870D1*
X2212152Y1348270D1*
X2221811Y1338612D1*
X2241240Y1333670D1*
X2265611D1*
X2289869Y1338612D1*
X2304469Y1348270D1*
X2309299Y1362870D1*
Y1372529D1*
X2304469Y1387128D1*
X2294699Y1391958D1*
X1496840Y1526616D2*
Y1482929D1*
X1491899Y1468329D1*
X1487069Y1463387D1*
X1477411Y1458558D1*
X1467640D1*
X1457982Y1463387D1*
X1453040Y1468329D1*
X1448211Y1482929D1*
Y1526616D1*
X1550298D1*
X1496840Y1492587D2*
X1550298Y1458558D1*
X1467752Y1427186D2*
X1462811Y1417415D1*
X1448323Y1402815D1*
X1550299D1*
X1448323Y1342242D2*
X1453152Y1356842D1*
X1467752Y1366613D1*
X1492011Y1371442D1*
X1506611D1*
X1530869Y1366613D1*
X1545469Y1356842D1*
X1550299Y1342242D1*
Y1332584D1*
X1545469Y1317984D1*
X1530869Y1308325D1*
X1506611Y1303384D1*
X1492011D1*
X1467752Y1308325D1*
X1453152Y1317984D1*
X1448323Y1332584D1*
Y1342242D1*
X1467752Y1308325D2*
X1530869Y1366613D1*
X1591840Y1090616D2*
Y1046929D1*
X1586899Y1032329D1*
X1582069Y1027387D1*
X1572411Y1022558D1*
X1562640D1*
X1552982Y1027387D1*
X1548040Y1032329D1*
X1543211Y1046929D1*
Y1090616D1*
X1645298D1*
X1591840Y1056587D2*
X1645298Y1022558D1*
X1562752Y991186D2*
X1557811Y981415D1*
X1543323Y966815D1*
X1645299D1*
X1543323Y925672D2*
Y872325D1*
X1582182Y901413D1*
Y886813D1*
X1587011Y877155D1*
X1591840Y872325D1*
X1606440Y867384D1*
X1616098D1*
X1630698Y872325D1*
X1640469Y881984D1*
X1645299Y896584D1*
Y911184D1*
X1640469Y925671D1*
X1635528Y930501D1*
X1625869Y935442D1*
X765031Y775160D2*
X721343D1*
X706743Y780102D1*
X701802Y784931D1*
X696973Y794589D1*
Y804360D1*
X701802Y814019D1*
X706743Y818960D1*
X721343Y823789D1*
X765031D1*
Y721702D1*
X731002Y775160D2*
X696973Y721702D1*
X665600Y804248D2*
X655829Y809189D1*
X641229Y823677D1*
Y721702D1*
X561227D2*
Y823677D1*
X609857Y755731D1*
X536969D1*
X2606778Y508377D2*
D53*
Y457333D1*
X2589764D1*
X2582464Y459804D1*
X2577578Y464633D1*
X2575164Y469518D1*
X2572749Y476762D1*
Y488947D1*
X2575164Y496247D1*
X2577578Y501077D1*
X2582464Y505962D1*
X2589764Y508377D1*
X2606778D1*
X2557063D2*
X2554648Y505962D1*
X2552178Y508377D1*
X2554648Y510847D1*
X2557063Y508377D1*
X2554648Y491362D2*
Y457333D1*
X2536491Y491362D2*
Y457333D1*
Y476762D2*
X2534020Y484062D1*
X2529191Y488947D1*
X2524306Y491362D1*
X2517006D1*
X2501320Y476762D2*
X2472176D1*
Y481647D1*
X2474590Y486533D1*
X2477005Y488947D1*
X2481890Y491362D1*
X2489190D1*
X2494020Y488947D1*
X2498905Y484062D1*
X2501320Y476762D1*
Y471933D1*
X2498905Y464633D1*
X2494020Y459804D1*
X2489190Y457333D1*
X2481890D1*
X2477005Y459804D1*
X2472176Y464633D1*
X2427289Y484062D2*
X2432175Y488947D1*
X2437060Y491362D1*
X2444304D1*
X2449189Y488947D1*
X2454019Y484062D1*
X2456489Y476762D1*
Y471933D1*
X2454019Y464633D1*
X2449189Y459804D1*
X2444304Y457333D1*
X2437060D1*
X2432175Y459804D1*
X2427289Y464633D1*
X2404303Y508377D2*
Y467047D1*
X2401889Y459804D1*
X2397003Y457333D1*
X2392174D1*
X2411603Y491362D2*
X2394589D1*
X2327109Y481647D2*
X2305209D1*
X2297965Y484062D1*
X2295494Y486533D1*
X2293080Y491362D1*
Y498662D1*
X2295494Y503491D1*
X2297965Y505962D1*
X2305209Y508377D1*
X2327109D1*
Y457333D1*
X2248250Y491362D2*
Y457333D1*
Y484062D2*
X2253079Y488947D1*
X2257964Y491362D1*
X2265208D1*
X2270094Y488947D1*
X2274923Y484062D1*
X2277394Y476762D1*
Y471933D1*
X2274923Y464633D1*
X2270094Y459804D1*
X2265208Y457333D1*
X2257964D1*
X2253079Y459804D1*
X2248250Y464633D1*
X2205834Y484062D2*
X2208249Y488947D1*
X2215549Y491362D1*
X2222849D1*
X2230149Y488947D1*
X2232563Y484062D1*
X2230149Y479233D1*
X2225263Y476762D1*
X2213134Y474347D1*
X2208249Y471933D1*
X2205834Y467047D1*
Y464633D1*
X2208249Y459804D1*
X2215549Y457333D1*
X2222849D1*
X2230149Y459804D1*
X2232563Y464633D1*
X2163419Y484062D2*
X2165833Y488947D1*
X2173133Y491362D1*
X2180433D1*
X2187733Y488947D1*
X2190148Y484062D1*
X2187733Y479233D1*
X2182848Y476762D1*
X2170719Y474347D1*
X2165833Y471933D1*
X2163419Y467047D1*
Y464633D1*
X2165833Y459804D1*
X2173133Y457333D1*
X2180433D1*
X2187733Y459804D1*
X2190148Y464633D1*
X2147732Y508377D2*
X2145318Y505962D1*
X2142847Y508377D1*
X2145318Y510847D1*
X2147732Y508377D1*
X2145318Y491362D2*
Y457333D1*
X2127161Y491362D2*
X2112561Y457333D1*
X2098017Y491362D1*
X2082331Y476762D2*
X2053187D1*
Y481647D1*
X2055601Y486533D1*
X2058016Y488947D1*
X2062901Y491362D1*
X2070201D1*
X2075031Y488947D1*
X2079916Y484062D1*
X2082331Y476762D1*
Y471933D1*
X2079916Y464633D1*
X2075031Y459804D1*
X2070201Y457333D1*
X2062901D1*
X2058016Y459804D1*
X2053187Y464633D1*
X1949207Y457333D2*
X1968693Y508377D1*
X1988122Y457333D1*
X1980822Y474347D2*
X1956507D1*
X1933521Y491362D2*
Y457333D1*
Y481647D2*
X1926221Y488947D1*
X1921336Y491362D1*
X1914092D1*
X1909206Y488947D1*
X1906792Y481647D1*
Y457333D1*
X1883806Y508377D2*
Y467047D1*
X1881391Y459804D1*
X1876506Y457333D1*
X1871676D1*
X1891106Y491362D2*
X1874091D1*
X1855990Y476762D2*
X1826846D1*
Y481647D1*
X1829261Y486533D1*
X1831675Y488947D1*
X1836561Y491362D1*
X1843861D1*
X1848690Y488947D1*
X1853575Y484062D1*
X1855990Y476762D1*
Y471933D1*
X1853575Y464633D1*
X1848690Y459804D1*
X1843861Y457333D1*
X1836561D1*
X1831675Y459804D1*
X1826846Y464633D1*
X1811160Y491362D2*
Y457333D1*
Y481647D2*
X1803860Y488947D1*
X1798975Y491362D1*
X1791731D1*
X1786845Y488947D1*
X1784431Y481647D1*
Y457333D1*
X1768744Y491362D2*
Y457333D1*
Y481647D2*
X1761444Y488947D1*
X1756559Y491362D1*
X1749315D1*
X1744430Y488947D1*
X1742015Y481647D1*
Y457333D1*
X1697185Y491362D2*
Y457333D1*
Y484062D2*
X1702014Y488947D1*
X1706900Y491362D1*
X1714144D1*
X1719029Y488947D1*
X1723858Y484062D1*
X1726329Y476762D1*
Y471933D1*
X1723858Y464633D1*
X1719029Y459804D1*
X1714144Y457333D1*
X1706900D1*
X1702014Y459804D1*
X1697185Y464633D1*
X1598091Y501077D2*
X1602920Y505962D1*
X1610220Y508377D1*
X1619935D1*
X1627235Y505962D1*
X1632120Y501077D1*
Y496247D1*
X1629649Y491362D1*
X1627235Y488947D1*
X1622406Y486533D1*
X1607806Y481647D1*
X1602920Y479233D1*
X1600506Y476762D1*
X1598091Y471933D1*
Y464633D1*
X1602920Y459804D1*
X1610220Y457333D1*
X1619935D1*
X1627235Y459804D1*
X1632120Y464633D1*
X1582405Y491362D2*
Y467047D1*
X1579990Y459804D1*
X1575105Y457333D1*
X1567805D1*
X1562976Y459804D1*
X1555676Y467047D1*
Y491362D2*
Y457333D1*
X1539989Y491362D2*
Y440318D1*
Y484062D2*
X1535104Y488891D1*
X1530275Y491362D1*
X1522975D1*
X1518089Y488891D1*
X1513260Y484062D1*
X1510789Y476762D1*
Y471877D1*
X1513260Y464633D1*
X1518089Y459747D1*
X1522975Y457333D1*
X1530275D1*
X1535104Y459747D1*
X1539989Y464633D1*
X1495103Y491362D2*
Y440318D1*
Y484062D2*
X1490218Y488891D1*
X1485388Y491362D1*
X1478088D1*
X1473203Y488891D1*
X1468374Y484062D1*
X1465903Y476762D1*
Y471877D1*
X1468374Y464633D1*
X1473203Y459747D1*
X1478088Y457333D1*
X1485388D1*
X1490218Y459747D1*
X1495103Y464633D1*
X1438087Y491362D2*
X1442917Y488947D1*
X1447802Y484062D1*
X1450217Y476762D1*
Y471933D1*
X1447802Y464633D1*
X1442917Y459804D1*
X1438087Y457333D1*
X1430787D1*
X1425902Y459804D1*
X1421073Y464633D1*
X1418602Y471933D1*
Y476762D1*
X1421073Y484062D1*
X1425902Y488947D1*
X1430787Y491362D1*
X1438087D1*
X1402916D2*
Y457333D1*
Y476762D2*
X1400445Y484062D1*
X1395616Y488947D1*
X1390730Y491362D1*
X1383430D1*
X1360444Y508377D2*
Y467047D1*
X1358030Y459804D1*
X1353144Y457333D1*
X1348315D1*
X1367744Y491362D2*
X1350730D1*
X2569547Y358333D2*
X2589032Y409377D1*
X2608462Y358333D1*
X2601162Y375347D2*
X2576847D1*
X2553861Y392362D2*
X2539261Y358333D1*
X2524717Y392362D1*
X2496901D2*
X2501731Y389947D1*
X2506616Y385062D1*
X2509031Y377762D1*
Y372933D1*
X2506616Y365633D1*
X2501731Y360804D1*
X2496901Y358333D1*
X2489601D1*
X2484716Y360804D1*
X2479887Y365633D1*
X2477416Y372933D1*
Y377762D1*
X2479887Y385062D1*
X2484716Y389947D1*
X2489601Y392362D1*
X2496901D1*
X2461730Y409377D2*
X2459315Y406962D1*
X2456844Y409377D1*
X2459315Y411847D1*
X2461730Y409377D1*
X2459315Y392362D2*
Y358333D1*
X2412014Y409377D2*
Y358333D1*
Y385062D2*
X2416843Y389947D1*
X2421729Y392362D1*
X2429029D1*
X2433858Y389947D1*
X2438743Y385062D1*
X2441158Y377762D1*
Y372933D1*
X2438743Y365633D1*
X2433858Y360804D1*
X2429029Y358333D1*
X2421729D1*
X2416843Y360804D1*
X2412014Y365633D1*
X2346949Y409377D2*
Y358333D1*
X2319134Y392362D2*
X2323963Y389947D1*
X2328848Y385062D1*
X2331263Y377762D1*
Y372933D1*
X2328848Y365633D1*
X2323963Y360804D1*
X2319134Y358333D1*
X2311834D1*
X2306948Y360804D1*
X2302119Y365633D1*
X2299648Y372933D1*
Y377762D1*
X2302119Y385062D1*
X2306948Y389947D1*
X2311834Y392362D1*
X2319134D1*
X2283962D2*
Y358333D1*
Y382647D2*
X2276662Y389947D1*
X2271777Y392362D1*
X2264533D1*
X2259648Y389947D1*
X2257233Y382647D1*
Y358333D1*
X2212403Y389947D2*
Y351033D1*
X2214817Y343789D1*
X2217232Y341318D1*
X2222117Y338904D1*
X2229417D1*
X2234247Y341318D1*
X2212403Y382647D2*
X2217232Y387477D1*
X2222117Y389947D1*
X2229417D1*
X2234247Y387477D1*
X2239132Y382647D1*
X2241547Y375347D1*
Y370462D1*
X2239132Y363218D1*
X2234247Y358333D1*
X2229417Y355918D1*
X2222117D1*
X2217232Y358333D1*
X2212403Y363218D1*
X2118194Y392362D2*
Y358333D1*
Y385062D2*
X2123023Y389947D1*
X2127909Y392362D1*
X2135153D1*
X2140038Y389947D1*
X2144867Y385062D1*
X2147338Y377762D1*
Y372933D1*
X2144867Y365633D1*
X2140038Y360804D1*
X2135153Y358333D1*
X2127909D1*
X2123023Y360804D1*
X2118194Y365633D1*
X2102508Y392362D2*
Y358333D1*
Y382647D2*
X2095208Y389947D1*
X2090323Y392362D1*
X2083079D1*
X2078193Y389947D1*
X2075779Y382647D1*
Y358333D1*
X2052792Y409377D2*
Y368047D1*
X2050378Y360804D1*
X2045492Y358333D1*
X2040663D1*
X2060092Y392362D2*
X2043078D1*
X2024977Y377762D2*
X1995833D1*
Y382647D1*
X1998248Y387533D1*
X2000662Y389947D1*
X2005548Y392362D1*
X2012848D1*
X2017677Y389947D1*
X2022562Y385062D1*
X2024977Y377762D1*
Y372933D1*
X2022562Y365633D1*
X2017677Y360804D1*
X2012848Y358333D1*
X2005548D1*
X2000662Y360804D1*
X1995833Y365633D1*
X1980147Y392362D2*
Y358333D1*
Y382647D2*
X1972847Y389947D1*
X1967961Y392362D1*
X1960718D1*
X1955832Y389947D1*
X1953418Y382647D1*
Y358333D1*
X1937731Y392362D2*
Y358333D1*
Y382647D2*
X1930431Y389947D1*
X1925546Y392362D1*
X1918302D1*
X1913417Y389947D1*
X1911002Y382647D1*
Y358333D1*
X1866172Y392362D2*
Y358333D1*
Y385062D2*
X1871001Y389947D1*
X1875887Y392362D1*
X1883130D1*
X1888016Y389947D1*
X1892845Y385062D1*
X1895316Y377762D1*
Y372933D1*
X1892845Y365633D1*
X1888016Y360804D1*
X1883130Y358333D1*
X1875887D1*
X1871001Y360804D1*
X1866172Y365633D1*
X1771907Y385062D2*
X1776792Y389947D1*
X1781678Y392362D1*
X1788922D1*
X1793807Y389947D1*
X1798636Y385062D1*
X1801107Y377762D1*
Y372933D1*
X1798636Y365633D1*
X1793807Y360804D1*
X1788922Y358333D1*
X1781678D1*
X1776792Y360804D1*
X1771907Y365633D1*
X1727077Y392362D2*
Y358333D1*
Y385062D2*
X1731906Y389947D1*
X1736792Y392362D1*
X1744035D1*
X1748921Y389947D1*
X1753750Y385062D1*
X1756221Y377762D1*
Y372933D1*
X1753750Y365633D1*
X1748921Y360804D1*
X1744035Y358333D1*
X1736792D1*
X1731906Y360804D1*
X1727077Y365633D1*
X1711391Y409377D2*
Y358333D1*
Y385062D2*
X1706505Y389947D1*
X1701676Y392362D1*
X1694376D1*
X1689547Y389947D1*
X1684661Y385062D1*
X1682247Y377762D1*
Y372933D1*
X1684661Y365633D1*
X1689547Y360804D1*
X1694376Y358333D1*
X1701676D1*
X1706505Y360804D1*
X1711391Y365633D1*
X1666561Y409377D2*
Y358333D1*
X1650874Y377762D2*
X1621730D1*
Y382647D1*
X1624145Y387533D1*
X1626560Y389947D1*
X1631445Y392362D1*
X1638745D1*
X1643574Y389947D1*
X1648460Y385062D1*
X1650874Y377762D1*
Y372933D1*
X1648460Y365633D1*
X1643574Y360804D1*
X1638745Y358333D1*
X1631445D1*
X1626560Y360804D1*
X1621730Y365633D1*
X1579315Y385062D2*
X1581730Y389947D1*
X1589030Y392362D1*
X1596330D1*
X1603630Y389947D1*
X1606044Y385062D1*
X1603630Y380233D1*
X1598744Y377762D1*
X1586615Y375347D1*
X1581730Y372933D1*
X1579315Y368047D1*
Y365633D1*
X1581730Y360804D1*
X1589030Y358333D1*
X1596330D1*
X1603630Y360804D1*
X1606044Y365633D1*
M02*
