M48
METRIC,0000.00
T01C0.4
T02C0.8
T03C0.9
%
T01
X+002167Y+000605
X+002013Y+000605
X+002090Y+000781
X+001595Y+000781
X+001628Y+001089
X+001540Y+001166
X+001509Y+001510
X+001527Y+001617
X+001155Y+001133
X+000858Y+000649
X+000759Y+000528
X+000671Y+000649
X+000484Y+000836
X+000484Y+001100
X+000327Y+000341
X+000481Y+000320
X+000130Y+000284
X+001636Y+000151
X+001991Y+000110
X+002167Y+000110
T02
X+001055Y+000821
X+001255Y+000821
X+001455Y+000821
X+001455Y+001021
X+001255Y+001021
X+001055Y+001021
X+001053Y+000621
X+001253Y+000621
X+001453Y+000621
T03
X+000161Y+001750
X+000415Y+001750
X+000669Y+001750
X+000923Y+001750
X+001177Y+001750
X+001431Y+001750
X+001685Y+001750
X+001939Y+001750
X+002193Y+001750
T00
M30
