G04 DipTrace 3.0.0.2*
G04 TopSilk.gbr*
%MOMM*%
G04 #@! TF.FileFunction,Legend,Top*
G04 #@! TF.Part,Single*
%ADD10C,0.254*%
%ADD12C,0.076*%
%ADD28O,1.16974X1.22037*%
%ADD52C,0.15686*%
%ADD53C,0.07843*%
%FSLAX35Y35*%
G04*
G71*
G90*
G75*
G01*
G04 TopSilk*
%LPD*%
X28947Y751050D2*
D10*
Y880950D1*
X34000Y1877000D2*
X2320000D1*
X34000Y1623000D2*
Y1877000D1*
Y1623000D2*
X2320000D1*
Y1877000D1*
X521000Y1454000D2*
X1985000D1*
Y187067D1*
X521000D1*
Y1454000D1*
D28*
X621504Y91018D3*
X22000Y1936000D2*
D10*
X2684000D1*
Y11000D1*
X22000D1*
Y1936000D1*
X1092991Y160210D2*
D12*
X1104391D1*
X1187987D2*
X1233585D1*
X1298183D2*
X1343781D1*
X1408378D2*
X1453976D1*
X1522373D2*
X1567971D1*
X1723765D2*
X1735164D1*
X1091129Y156410D2*
X1106254D1*
X1186389D2*
X1235367D1*
X1296584D2*
X1345562D1*
X1406780D2*
X1455575D1*
X1520775D2*
X1569570D1*
X1721902D2*
X1737027D1*
X1090947Y152610D2*
X1106405D1*
X1185438D2*
X1237385D1*
X1295633D2*
X1347581D1*
X1405829D2*
X1456526D1*
X1519824D2*
X1570521D1*
X1721720D2*
X1737178D1*
X1093481Y148810D2*
X1103620D1*
X1186492D2*
X1235367D1*
X1296687D2*
X1345562D1*
X1406882D2*
X1455472D1*
X1520877D2*
X1569467D1*
X1724254D2*
X1734394D1*
X1096791Y145010D2*
X1099960D1*
X1187987D2*
X1233585D1*
X1298183D2*
X1343781D1*
X1408378D2*
X1453976D1*
X1522373D2*
X1567971D1*
X1727565D2*
X1730733D1*
X1081592Y141210D2*
X1096676D1*
X1108191D2*
X1119590D1*
X1168988D2*
X1180388D1*
X1241185D2*
X1252585D1*
X1279184D2*
X1290583D1*
X1351381D2*
X1362780D1*
X1389379D2*
X1400778D1*
X1461576D2*
X1469176D1*
X1503374D2*
X1514774D1*
X1575571D2*
X1583171D1*
X1712365D2*
X1727450D1*
X1738964D2*
X1750364D1*
X1079824Y137411D2*
X1093951D1*
X1106692D2*
X1121358D1*
X1167220D2*
X1181883D1*
X1239649D2*
X1254062D1*
X1277416D2*
X1292079D1*
X1349844D2*
X1364257D1*
X1387843D2*
X1402388D1*
X1460080D2*
X1472634D1*
X1501838D2*
X1516383D1*
X1574076D2*
X1586629D1*
X1710597D2*
X1724725D1*
X1737465D2*
X1752132D1*
X1078649Y133611D2*
X1090983D1*
X1105578D2*
X1122533D1*
X1166046D2*
X1181405D1*
X1239632D2*
X1253665D1*
X1276241D2*
X1291600D1*
X1349827D2*
X1363860D1*
X1387956D2*
X1403371D1*
X1460559D2*
X1474222D1*
X1501951D2*
X1517367D1*
X1574554D2*
X1588217D1*
X1709423D2*
X1721757D1*
X1736352D2*
X1753306D1*
X1077792Y129811D2*
X1083280D1*
X1117653D2*
X1123390D1*
X1165188D2*
X1180388D1*
X1239646D2*
X1251400D1*
X1275384D2*
X1290583D1*
X1349841D2*
X1361595D1*
X1388323D2*
X1402873D1*
X1461576D2*
X1471814D1*
X1502318D2*
X1516868D1*
X1575571D2*
X1585809D1*
X1708565D2*
X1714054D1*
X1748427D2*
X1754164D1*
X1239188Y126011D2*
X1248785D1*
X1349383D2*
X1358980D1*
X1388291D2*
X1402545D1*
X1451522D2*
X1469176D1*
X1502287D2*
X1516540D1*
X1565517D2*
X1583171D1*
X1066393Y122211D2*
X1077792D1*
X1119590D2*
X1134790D1*
X1238616D2*
X1251733D1*
X1348812D2*
X1361928D1*
X1387773D2*
X1402740D1*
X1443801D2*
X1472069D1*
X1501768D2*
X1516736D1*
X1557796D2*
X1586064D1*
X1697166D2*
X1708565D1*
X1750364D2*
X1765563D1*
X1064897Y118411D2*
X1079287D1*
X1120289D2*
X1138589D1*
X1238335D2*
X1253786D1*
X1348530D2*
X1363981D1*
X1387393D2*
X1402926D1*
X1440998D2*
X1474278D1*
X1501389D2*
X1516921D1*
X1554993D2*
X1588273D1*
X1695671D2*
X1710061D1*
X1751062D2*
X1769363D1*
X1065375Y114611D2*
X1078809D1*
X1121622D2*
X1136727D1*
X1239563D2*
X1255197D1*
X1349758D2*
X1365392D1*
X1387561D2*
X1402664D1*
X1439846D2*
X1474003D1*
X1501556D2*
X1516659D1*
X1553841D2*
X1587998D1*
X1696149D2*
X1709583D1*
X1752396D2*
X1767500D1*
X1066393Y110812D2*
X1077792D1*
X1123390D2*
X1136516D1*
X1241185D2*
X1246685D1*
X1351381D2*
X1356880D1*
X1387719D2*
X1402464D1*
X1450202D2*
X1471770D1*
X1501714D2*
X1516459D1*
X1564198D2*
X1585765D1*
X1697166D2*
X1708565D1*
X1754164D2*
X1767290D1*
X1062767Y107012D2*
X1138735D1*
X1187987D2*
X1237385D1*
X1298183D2*
X1347581D1*
X1387333D2*
X1402833D1*
X1461576D2*
X1469176D1*
X1501329D2*
X1516829D1*
X1575571D2*
X1583171D1*
X1617369D2*
X1662967D1*
X1693541D2*
X1769508D1*
X1059736Y103212D2*
X1141335D1*
X1186389D2*
X1238984D1*
X1296584D2*
X1349179D1*
X1386781D2*
X1403369D1*
X1423577D2*
X1438777D1*
X1459967D2*
X1472069D1*
X1500776D2*
X1517364D1*
X1537573D2*
X1552772D1*
X1573962D2*
X1586064D1*
X1615771D2*
X1664566D1*
X1690510D2*
X1772109D1*
X1057435Y99412D2*
X1143570D1*
X1185438D2*
X1239935D1*
X1295633D2*
X1350130D1*
X1386724D2*
X1403632D1*
X1424276D2*
X1438078D1*
X1458983D2*
X1474278D1*
X1500719D2*
X1517628D1*
X1538271D2*
X1552073D1*
X1572978D2*
X1588273D1*
X1614820D2*
X1665517D1*
X1688208D2*
X1774343D1*
X1057315Y95612D2*
X1143776D1*
X1186492D2*
X1238881D1*
X1296687D2*
X1349077D1*
X1387206D2*
X1402402D1*
X1425609D2*
X1436745D1*
X1459481D2*
X1474003D1*
X1501201D2*
X1516397D1*
X1539605D2*
X1550740D1*
X1573476D2*
X1587998D1*
X1615873D2*
X1664463D1*
X1688088D2*
X1774549D1*
X1057281Y91812D2*
X1143845D1*
X1187987D2*
X1237385D1*
X1298183D2*
X1347581D1*
X1387557D2*
X1400778D1*
X1427377D2*
X1434977D1*
X1459795D2*
X1471770D1*
X1501553D2*
X1514774D1*
X1541373D2*
X1548972D1*
X1573790D2*
X1585765D1*
X1617369D2*
X1662967D1*
X1688054D2*
X1774619D1*
X1056805Y88013D2*
X1069431D1*
X1131751D2*
X1144212D1*
X1168988D2*
X1180388D1*
X1279184D2*
X1290583D1*
X1387266D2*
X1409079D1*
X1459480D2*
X1469176D1*
X1501262D2*
X1523074D1*
X1573475D2*
X1583171D1*
X1687578D2*
X1700204D1*
X1762525D2*
X1774986D1*
X1056216Y84213D2*
X1071955D1*
X1129227D2*
X1144638D1*
X1167379D2*
X1181865D1*
X1277574D2*
X1292060D1*
X1386755D2*
X1415500D1*
X1458959D2*
X1472627D1*
X1500751D2*
X1529495D1*
X1572954D2*
X1586622D1*
X1686989D2*
X1702728D1*
X1760001D2*
X1775412D1*
X1056145Y80413D2*
X1072737D1*
X1128445D2*
X1143412D1*
X1166395D2*
X1181468D1*
X1276591D2*
X1291663D1*
X1386715D2*
X1418542D1*
X1458914D2*
X1475291D1*
X1500710D2*
X1532537D1*
X1572909D2*
X1589286D1*
X1686919D2*
X1703510D1*
X1759219D2*
X1774185D1*
X1056622Y76613D2*
X1072267D1*
X1128915D2*
X1141240D1*
X1166894D2*
X1179203D1*
X1277089D2*
X1289398D1*
X1387203D2*
X1415975D1*
X1459400D2*
X1472549D1*
X1501198D2*
X1529970D1*
X1573396D2*
X1586544D1*
X1687396D2*
X1703040D1*
X1759689D2*
X1772014D1*
X1056987Y72813D2*
X1071951D1*
X1129231D2*
X1138589D1*
X1167222D2*
X1176588D1*
X1277417D2*
X1286783D1*
X1387571D2*
X1409015D1*
X1459768D2*
X1469176D1*
X1501566D2*
X1523010D1*
X1573763D2*
X1583171D1*
X1687760D2*
X1702725D1*
X1760004D2*
X1769363D1*
X1056814Y69013D2*
X1072152D1*
X1129030D2*
X1141483D1*
X1167026D2*
X1179481D1*
X1277222D2*
X1289677D1*
X1387410D2*
X1400778D1*
X1459607D2*
X1472074D1*
X1501405D2*
X1514774D1*
X1573602D2*
X1586069D1*
X1687588D2*
X1702925D1*
X1759804D2*
X1772256D1*
X1056639Y65214D2*
X1072339D1*
X1128858D2*
X1143692D1*
X1166855D2*
X1181690D1*
X1277051D2*
X1291886D1*
X1387344D2*
X1402274D1*
X1459541D2*
X1474296D1*
X1501339D2*
X1516269D1*
X1573536D2*
X1588292D1*
X1687412D2*
X1703113D1*
X1759631D2*
X1774465D1*
X1056905Y61414D2*
X1072077D1*
X1129238D2*
X1143417D1*
X1167236D2*
X1181416D1*
X1277432D2*
X1291611D1*
X1388082D2*
X1401796D1*
X1460279D2*
X1473924D1*
X1502077D2*
X1515791D1*
X1574274D2*
X1587919D1*
X1687679D2*
X1702851D1*
X1760012D2*
X1774191D1*
X1057107Y57614D2*
X1071878D1*
X1129789D2*
X1141184D1*
X1167787D2*
X1179182D1*
X1277982D2*
X1289378D1*
X1389379D2*
X1400778D1*
X1461576D2*
X1472975D1*
X1503374D2*
X1514774D1*
X1575571D2*
X1586971D1*
X1687880D2*
X1702651D1*
X1760562D2*
X1771957D1*
X1056738Y53814D2*
X1072247D1*
X1129845D2*
X1138589D1*
X1167843D2*
X1252585D1*
X1278039D2*
X1362780D1*
X1408378D2*
X1453976D1*
X1522373D2*
X1567971D1*
X1687511D2*
X1703021D1*
X1760618D2*
X1769363D1*
X1056203Y50014D2*
X1072782D1*
X1129373D2*
X1141488D1*
X1167372D2*
X1254183D1*
X1277567D2*
X1364378D1*
X1406780D2*
X1455757D1*
X1520775D2*
X1569753D1*
X1686976D2*
X1703556D1*
X1760147D2*
X1772261D1*
X1055939Y46214D2*
X1073046D1*
X1129116D2*
X1143710D1*
X1167114D2*
X1255134D1*
X1277309D2*
X1365329D1*
X1405829D2*
X1457776D1*
X1519824D2*
X1571771D1*
X1686712D2*
X1703820D1*
X1759889D2*
X1774484D1*
X1057169Y42415D2*
X1071816D1*
X1129755D2*
X1143337D1*
X1167753D2*
X1254081D1*
X1277948D2*
X1364276D1*
X1406882D2*
X1455757D1*
X1520877D2*
X1569753D1*
X1687943D2*
X1702589D1*
X1760528D2*
X1774111D1*
X1058793Y38615D2*
X1070192D1*
X1130990D2*
X1142389D1*
X1168988D2*
X1252585D1*
X1279184D2*
X1362780D1*
X1408378D2*
X1453976D1*
X1522373D2*
X1567971D1*
X1689566D2*
X1700966D1*
X1761763D2*
X1773163D1*
X2502984Y1026400D2*
X2533383D1*
X2491682Y1018801D2*
X2510873D1*
X2526072D2*
X2536300D1*
X2481465Y1011201D2*
X2511877D1*
X2527076D2*
X2539862D1*
X2476241Y1003601D2*
X2487814D1*
X2503273D2*
X2513995D1*
X2529195D2*
X2544657D1*
X2449786Y996002D2*
X2457386D1*
X2474592D2*
X2488082D1*
X2504277D2*
X2517210D1*
X2532439D2*
X2551464D1*
X2446568Y988402D2*
X2457675D1*
X2474587D2*
X2489080D1*
X2506396D2*
X2521650D1*
X2537117D2*
X2560602D1*
X2444600Y980802D2*
X2458679D1*
X2476237D2*
X2491197D1*
X2509610D2*
X2527656D1*
X2543883D2*
X2572462D1*
X2445916Y973203D2*
X2460798D1*
X2479011D2*
X2494411D1*
X2514021D2*
X2535366D1*
X2553009D2*
X2587475D1*
X2447814Y965603D2*
X2464012D1*
X2482390D2*
X2498851D1*
X2519789D2*
X2544964D1*
X2564972D2*
X2603811D1*
X2450213Y958003D2*
X2468423D1*
X2486287D2*
X2504887D1*
X2526768D2*
X2556718D1*
X2581032D2*
X2617122D1*
X2453669Y950404D2*
X2474162D1*
X2491042D2*
X2512832D1*
X2535229D2*
X2570892D1*
X2601632D2*
X2626758D1*
X2458032Y942804D2*
X2480873D1*
X2497179D2*
X2523088D1*
X2545725D2*
X2586580D1*
X2624579D2*
X2629607D1*
X2462696Y935204D2*
X2488338D1*
X2504939D2*
X2535381D1*
X2558122D2*
X2630812D1*
X2467890Y927604D2*
X2496804D1*
X2514569D2*
X2548582D1*
X2571381D2*
X2630934D1*
X2474266Y920005D2*
X2506756D1*
X2526489D2*
X2571381D1*
X2601780D2*
X2628113D1*
X2482352Y912405D2*
X2518902D1*
X2541478D2*
X2624579D1*
X2492689Y904805D2*
X2534858D1*
X2559520D2*
X2628616D1*
X2176198Y897206D2*
X2449786D1*
X2505239D2*
X2556737D1*
X2578981D2*
X2632179D1*
X2159303Y889606D2*
X2466711D1*
X2519723D2*
X2585067D1*
X2146347Y882006D2*
X2479934D1*
X2536716D2*
X2616979D1*
X2136710Y874407D2*
X2170121D1*
X2455989D2*
X2489065D1*
X2556885D2*
X2616979D1*
X2133527Y866807D2*
X2158344D1*
X2176198D2*
X2419388D1*
X2468522D2*
X2495174D1*
X2578981D2*
X2616979D1*
X2131831Y859207D2*
X2149198D1*
X2168917D2*
X2431025D1*
X2480185D2*
X2499095D1*
X2131077Y851608D2*
X2142481D1*
X2162588D2*
X2192920D1*
X2400882D2*
X2442187D1*
X2457386D2*
X2501244D1*
X2130774Y844008D2*
X2137561D1*
X2158076D2*
X2181173D1*
X2416100D2*
X2502268D1*
X2130661Y836408D2*
X2134160D1*
X2155510D2*
X2172294D1*
X2427444D2*
X2479806D1*
X2495384D2*
X2502708D1*
X2130620Y828809D2*
X2132219D1*
X2154270D2*
X2165547D1*
X2431172D2*
X2478908D1*
X2495384D2*
X2502883D1*
X2130606Y821209D2*
X2131273D1*
X2153735D2*
X2163196D1*
X2433153D2*
X2473523D1*
X2495384D2*
X2502949D1*
X2130602Y813609D2*
X2130861D1*
X2153522D2*
X2161930D1*
X2434032D2*
X2465949D1*
X2495384D2*
X2502972D1*
X2130600Y806010D2*
X2130696D1*
X2153442D2*
X2161362D1*
X2214196D2*
X2252195D1*
X2274994D2*
X2320592D1*
X2343391D2*
X2388989D1*
X2434385D2*
X2458737D1*
X2495384D2*
X2502980D1*
X2130600Y798410D2*
X2130634D1*
X2153413D2*
X2161132D1*
X2208090D2*
X2256232D1*
X2274994D2*
X2324070D1*
X2343361D2*
X2387592D1*
X2434516D2*
X2453188D1*
X2495384D2*
X2502983D1*
X2130600Y790810D2*
X2130611D1*
X2153404D2*
X2161045D1*
X2203645D2*
X2223319D1*
X2244595D2*
X2259794D1*
X2274994D2*
X2290193D1*
X2312992D2*
X2326579D1*
X2343094D2*
X2358590D1*
X2373789D2*
X2384925D1*
X2434563D2*
X2451392D1*
X2495384D2*
X2502984D1*
X2130600Y783211D2*
X2130603D1*
X2153400D2*
X2161014D1*
X2201130D2*
X2218271D1*
X2274994D2*
X2290193D1*
X2305392D2*
X2326239D1*
X2342155D2*
X2381389D1*
X2434579D2*
X2450452D1*
X2495384D2*
X2502984D1*
X2130600Y775611D2*
X2130601D1*
X2153399D2*
X2161004D1*
X2200193D2*
X2216794D1*
X2229396D2*
X2259794D1*
X2274994D2*
X2321392D1*
X2340602D2*
X2387206D1*
X2434584D2*
X2450041D1*
X2495384D2*
X2502984D1*
X2130600Y768011D2*
D3*
X2153399D2*
X2161000D1*
X2200239D2*
X2218842D1*
X2236520D2*
X2259794D1*
X2274994D2*
X2311109D1*
X2339627D2*
X2350990D1*
X2366190D2*
X2391713D1*
X2434586D2*
X2449878D1*
X2495384D2*
X2502984D1*
X2130600Y760412D2*
D3*
X2153399D2*
X2160999D1*
X2203597D2*
X2221796D1*
X2244595D2*
X2259794D1*
X2274994D2*
X2301671D1*
X2340180D2*
X2358590D1*
X2373789D2*
X2391599D1*
X2434587D2*
X2449818D1*
X2495384D2*
X2502984D1*
X2130600Y752812D2*
D3*
X2153399D2*
X2160999D1*
X2208504D2*
X2259794D1*
X2274994D2*
X2295113D1*
X2341698D2*
X2390434D1*
X2434587D2*
X2449797D1*
X2495384D2*
X2502984D1*
X2130600Y745212D2*
D3*
X2153399D2*
X2160998D1*
X2214196D2*
X2259794D1*
X2274994D2*
X2290193D1*
X2343391D2*
X2388989D1*
X2434587D2*
X2449790D1*
X2495384D2*
X2502984D1*
X2130600Y737612D2*
D3*
X2153399D2*
X2160998D1*
X2434587D2*
X2449787D1*
X2495384D2*
X2502984D1*
X2130600Y730013D2*
D3*
X2153399D2*
X2161028D1*
X2434587D2*
X2449757D1*
X2495384D2*
X2502984D1*
X2130600Y722413D2*
X2130629D1*
X2153399D2*
X2161325D1*
X2434557D2*
X2449489D1*
X2495355D2*
X2502984D1*
X2130600Y714813D2*
X2130897D1*
X2153428D2*
X2162620D1*
X2434201D2*
X2448491D1*
X2495087D2*
X2502984D1*
X2130600Y707214D2*
X2131895D1*
X2153725D2*
X2165080D1*
X2433310D2*
X2446374D1*
X2494089D2*
X2502984D1*
X2130600Y699614D2*
X2134012D1*
X2155020D2*
X2172069D1*
X2428546D2*
X2443160D1*
X2491972D2*
X2502954D1*
X2130600Y692014D2*
X2137255D1*
X2157481D2*
X2181658D1*
X2416040D2*
X2438750D1*
X2488729D2*
X2502687D1*
X2130629Y684415D2*
X2141963D1*
X2164367D2*
X2193606D1*
X2399679D2*
X2433017D1*
X2484021D2*
X2501689D1*
X2130919Y676815D2*
X2148965D1*
X2173437D2*
X2426381D1*
X2477019D2*
X2499578D1*
X2132093Y669215D2*
X2158704D1*
X2183797D2*
X2419388D1*
X2467280D2*
X2496436D1*
X2134691Y661616D2*
X2170746D1*
X2455238D2*
X2492397D1*
X2138199Y654016D2*
X2487785D1*
X1092991Y160210D2*
X1091129Y156410D1*
X1090947Y152610D1*
X1093481Y148810D1*
X1096791Y145010D1*
X1104391Y160210D2*
X1106254Y156410D1*
X1106405Y152610D1*
X1103620Y148810D1*
X1099960Y145010D1*
X1096676Y141210D1*
X1093951Y137411D1*
X1090983Y133611D1*
X1083280Y129811D1*
X1073992Y126011D1*
X1187987Y160210D2*
X1186389Y156410D1*
X1185438Y152610D1*
X1186492Y148810D1*
X1187987Y145010D1*
X1233585Y160210D2*
X1235367Y156410D1*
X1237385Y152610D1*
X1235367Y148810D1*
X1233585Y145010D1*
X1298183Y160210D2*
X1296584Y156410D1*
X1295633Y152610D1*
X1296687Y148810D1*
X1298183Y145010D1*
X1343781Y160210D2*
X1345562Y156410D1*
X1347581Y152610D1*
X1345562Y148810D1*
X1343781Y145010D1*
X1408378Y160210D2*
X1406780Y156410D1*
X1405829Y152610D1*
X1406882Y148810D1*
X1408378Y145010D1*
X1453976Y160210D2*
X1455575Y156410D1*
X1456526Y152610D1*
X1455472Y148810D1*
X1453976Y145010D1*
X1522373Y160210D2*
X1520775Y156410D1*
X1519824Y152610D1*
X1520877Y148810D1*
X1522373Y145010D1*
X1567971Y160210D2*
X1569570Y156410D1*
X1570521Y152610D1*
X1569467Y148810D1*
X1567971Y145010D1*
X1723765Y160210D2*
X1721902Y156410D1*
X1721720Y152610D1*
X1724254Y148810D1*
X1727565Y145010D1*
X1735164Y160210D2*
X1737027Y156410D1*
X1737178Y152610D1*
X1734394Y148810D1*
X1730733Y145010D1*
X1727450Y141210D1*
X1724725Y137411D1*
X1721757Y133611D1*
X1714054Y129811D1*
X1704766Y126011D1*
X1081592Y141210D2*
X1079824Y137411D1*
X1078649Y133611D1*
X1077792Y129811D1*
X1108191Y141210D2*
X1106692Y137411D1*
X1105578Y133611D1*
X1117653Y129811D1*
X1130990Y126011D1*
X1119590Y141210D2*
X1121358Y137411D1*
X1122533Y133611D1*
X1123390Y129811D1*
X1168988Y141210D2*
X1167220Y137411D1*
X1166046Y133611D1*
X1165188Y129811D1*
X1180388Y141210D2*
X1181883Y137411D1*
X1181405Y133611D1*
X1180388Y129811D1*
X1241185Y141210D2*
X1239649Y137411D1*
X1239632Y133611D1*
X1239646Y129811D1*
X1239188Y126011D1*
X1238616Y122211D1*
X1238335Y118411D1*
X1239563Y114611D1*
X1241185Y110812D1*
X1252585Y141210D2*
X1254062Y137411D1*
X1253665Y133611D1*
X1251400Y129811D1*
X1248785Y126011D1*
X1251733Y122211D1*
X1253786Y118411D1*
X1255197Y114611D1*
X1246685Y110812D1*
X1237385Y107012D1*
X1238984Y103212D1*
X1239935Y99412D1*
X1238881Y95612D1*
X1237385Y91812D1*
X1279184Y141210D2*
X1277416Y137411D1*
X1276241Y133611D1*
X1275384Y129811D1*
X1290583Y141210D2*
X1292079Y137411D1*
X1291600Y133611D1*
X1290583Y129811D1*
X1351381Y141210D2*
X1349844Y137411D1*
X1349827Y133611D1*
X1349841Y129811D1*
X1349383Y126011D1*
X1348812Y122211D1*
X1348530Y118411D1*
X1349758Y114611D1*
X1351381Y110812D1*
X1362780Y141210D2*
X1364257Y137411D1*
X1363860Y133611D1*
X1361595Y129811D1*
X1358980Y126011D1*
X1361928Y122211D1*
X1363981Y118411D1*
X1365392Y114611D1*
X1356880Y110812D1*
X1347581Y107012D1*
X1349179Y103212D1*
X1350130Y99412D1*
X1349077Y95612D1*
X1347581Y91812D1*
X1389379Y141210D2*
X1387843Y137411D1*
X1387956Y133611D1*
X1388323Y129811D1*
X1388291Y126011D1*
X1387773Y122211D1*
X1387393Y118411D1*
X1387561Y114611D1*
X1387719Y110812D1*
X1387333Y107012D1*
X1386781Y103212D1*
X1386724Y99412D1*
X1387206Y95612D1*
X1387557Y91812D1*
X1387266Y88013D1*
X1386755Y84213D1*
X1386715Y80413D1*
X1387203Y76613D1*
X1387571Y72813D1*
X1387410Y69013D1*
X1387344Y65214D1*
X1388082Y61414D1*
X1389379Y57614D1*
X1400778Y141210D2*
X1402388Y137411D1*
X1403371Y133611D1*
X1402873Y129811D1*
X1402545Y126011D1*
X1402740Y122211D1*
X1402926Y118411D1*
X1402664Y114611D1*
X1402464Y110812D1*
X1402833Y107012D1*
X1403369Y103212D1*
X1403632Y99412D1*
X1402402Y95612D1*
X1400778Y91812D1*
X1409079Y88013D1*
X1415500Y84213D1*
X1418542Y80413D1*
X1415975Y76613D1*
X1409015Y72813D1*
X1400778Y69013D1*
X1402274Y65214D1*
X1401796Y61414D1*
X1400778Y57614D1*
X1461576Y141210D2*
X1460080Y137411D1*
X1460559Y133611D1*
X1461576Y129811D1*
X1451522Y126011D1*
X1443801Y122211D1*
X1440998Y118411D1*
X1439846Y114611D1*
X1450202Y110812D1*
X1461576Y107012D1*
X1459967Y103212D1*
X1458983Y99412D1*
X1459481Y95612D1*
X1459795Y91812D1*
X1459480Y88013D1*
X1458959Y84213D1*
X1458914Y80413D1*
X1459400Y76613D1*
X1459768Y72813D1*
X1459607Y69013D1*
X1459541Y65214D1*
X1460279Y61414D1*
X1461576Y57614D1*
X1469176Y141210D2*
X1472634Y137411D1*
X1474222Y133611D1*
X1471814Y129811D1*
X1469176Y126011D1*
X1472069Y122211D1*
X1474278Y118411D1*
X1474003Y114611D1*
X1471770Y110812D1*
X1469176Y107012D1*
X1472069Y103212D1*
X1474278Y99412D1*
X1474003Y95612D1*
X1471770Y91812D1*
X1469176Y88013D1*
X1472627Y84213D1*
X1475291Y80413D1*
X1472549Y76613D1*
X1469176Y72813D1*
X1472074Y69013D1*
X1474296Y65214D1*
X1473924Y61414D1*
X1472975Y57614D1*
X1503374Y141210D2*
X1501838Y137411D1*
X1501951Y133611D1*
X1502318Y129811D1*
X1502287Y126011D1*
X1501768Y122211D1*
X1501389Y118411D1*
X1501556Y114611D1*
X1501714Y110812D1*
X1501329Y107012D1*
X1500776Y103212D1*
X1500719Y99412D1*
X1501201Y95612D1*
X1501553Y91812D1*
X1501262Y88013D1*
X1500751Y84213D1*
X1500710Y80413D1*
X1501198Y76613D1*
X1501566Y72813D1*
X1501405Y69013D1*
X1501339Y65214D1*
X1502077Y61414D1*
X1503374Y57614D1*
X1514774Y141210D2*
X1516383Y137411D1*
X1517367Y133611D1*
X1516868Y129811D1*
X1516540Y126011D1*
X1516736Y122211D1*
X1516921Y118411D1*
X1516659Y114611D1*
X1516459Y110812D1*
X1516829Y107012D1*
X1517364Y103212D1*
X1517628Y99412D1*
X1516397Y95612D1*
X1514774Y91812D1*
X1523074Y88013D1*
X1529495Y84213D1*
X1532537Y80413D1*
X1529970Y76613D1*
X1523010Y72813D1*
X1514774Y69013D1*
X1516269Y65214D1*
X1515791Y61414D1*
X1514774Y57614D1*
X1575571Y141210D2*
X1574076Y137411D1*
X1574554Y133611D1*
X1575571Y129811D1*
X1565517Y126011D1*
X1557796Y122211D1*
X1554993Y118411D1*
X1553841Y114611D1*
X1564198Y110812D1*
X1575571Y107012D1*
X1573962Y103212D1*
X1572978Y99412D1*
X1573476Y95612D1*
X1573790Y91812D1*
X1573475Y88013D1*
X1572954Y84213D1*
X1572909Y80413D1*
X1573396Y76613D1*
X1573763Y72813D1*
X1573602Y69013D1*
X1573536Y65214D1*
X1574274Y61414D1*
X1575571Y57614D1*
X1583171Y141210D2*
X1586629Y137411D1*
X1588217Y133611D1*
X1585809Y129811D1*
X1583171Y126011D1*
X1586064Y122211D1*
X1588273Y118411D1*
X1587998Y114611D1*
X1585765Y110812D1*
X1583171Y107012D1*
X1586064Y103212D1*
X1588273Y99412D1*
X1587998Y95612D1*
X1585765Y91812D1*
X1583171Y88013D1*
X1586622Y84213D1*
X1589286Y80413D1*
X1586544Y76613D1*
X1583171Y72813D1*
X1586069Y69013D1*
X1588292Y65214D1*
X1587919Y61414D1*
X1586971Y57614D1*
X1712365Y141210D2*
X1710597Y137411D1*
X1709423Y133611D1*
X1708565Y129811D1*
X1738964Y141210D2*
X1737465Y137411D1*
X1736352Y133611D1*
X1748427Y129811D1*
X1761763Y126011D1*
X1750364Y141210D2*
X1752132Y137411D1*
X1753306Y133611D1*
X1754164Y129811D1*
X1066393Y122211D2*
X1064897Y118411D1*
X1065375Y114611D1*
X1066393Y110812D1*
X1062767Y107012D1*
X1059736Y103212D1*
X1057435Y99412D1*
X1057315Y95612D1*
X1057281Y91812D1*
X1056805Y88013D1*
X1056216Y84213D1*
X1056145Y80413D1*
X1056622Y76613D1*
X1056987Y72813D1*
X1056814Y69013D1*
X1056639Y65214D1*
X1056905Y61414D1*
X1057107Y57614D1*
X1056738Y53814D1*
X1056203Y50014D1*
X1055939Y46214D1*
X1057169Y42415D1*
X1058793Y38615D1*
X1077792Y122211D2*
X1079287Y118411D1*
X1078809Y114611D1*
X1077792Y110812D1*
X1115790Y107012D1*
X1119590Y122211D2*
X1120289Y118411D1*
X1121622Y114611D1*
X1123390Y110812D1*
X1085392Y107012D1*
X1134790Y122211D2*
X1138589Y118411D1*
X1136727Y114611D1*
X1136516Y110812D1*
X1138735Y107012D1*
X1141335Y103212D1*
X1143570Y99412D1*
X1143776Y95612D1*
X1143845Y91812D1*
X1144212Y88013D1*
X1144638Y84213D1*
X1143412Y80413D1*
X1141240Y76613D1*
X1138589Y72813D1*
X1141483Y69013D1*
X1143692Y65214D1*
X1143417Y61414D1*
X1141184Y57614D1*
X1138589Y53814D1*
X1141488Y50014D1*
X1143710Y46214D1*
X1143337Y42415D1*
X1142389Y38615D1*
X1697166Y122211D2*
X1695671Y118411D1*
X1696149Y114611D1*
X1697166Y110812D1*
X1693541Y107012D1*
X1690510Y103212D1*
X1688208Y99412D1*
X1688088Y95612D1*
X1688054Y91812D1*
X1687578Y88013D1*
X1686989Y84213D1*
X1686919Y80413D1*
X1687396Y76613D1*
X1687760Y72813D1*
X1687588Y69013D1*
X1687412Y65214D1*
X1687679Y61414D1*
X1687880Y57614D1*
X1687511Y53814D1*
X1686976Y50014D1*
X1686712Y46214D1*
X1687943Y42415D1*
X1689566Y38615D1*
X1708565Y122211D2*
X1710061Y118411D1*
X1709583Y114611D1*
X1708565Y110812D1*
X1746564Y107012D1*
X1750364Y122211D2*
X1751062Y118411D1*
X1752396Y114611D1*
X1754164Y110812D1*
X1716165Y107012D1*
X1765563Y122211D2*
X1769363Y118411D1*
X1767500Y114611D1*
X1767290Y110812D1*
X1769508Y107012D1*
X1772109Y103212D1*
X1774343Y99412D1*
X1774549Y95612D1*
X1774619Y91812D1*
X1774986Y88013D1*
X1775412Y84213D1*
X1774185Y80413D1*
X1772014Y76613D1*
X1769363Y72813D1*
X1772256Y69013D1*
X1774465Y65214D1*
X1774191Y61414D1*
X1771957Y57614D1*
X1769363Y53814D1*
X1772261Y50014D1*
X1774484Y46214D1*
X1774111Y42415D1*
X1773163Y38615D1*
X1187987Y107012D2*
X1186389Y103212D1*
X1185438Y99412D1*
X1186492Y95612D1*
X1187987Y91812D1*
X1298183Y107012D2*
X1296584Y103212D1*
X1295633Y99412D1*
X1296687Y95612D1*
X1298183Y91812D1*
X1617369Y107012D2*
X1615771Y103212D1*
X1614820Y99412D1*
X1615873Y95612D1*
X1617369Y91812D1*
X1662967Y107012D2*
X1664566Y103212D1*
X1665517Y99412D1*
X1664463Y95612D1*
X1662967Y91812D1*
X1423577Y103212D2*
X1424276Y99412D1*
X1425609Y95612D1*
X1427377Y91812D1*
X1438777Y103212D2*
X1438078Y99412D1*
X1436745Y95612D1*
X1434977Y91812D1*
X1537573Y103212D2*
X1538271Y99412D1*
X1539605Y95612D1*
X1541373Y91812D1*
X1552772Y103212D2*
X1552073Y99412D1*
X1550740Y95612D1*
X1548972Y91812D1*
X1066393D2*
X1069431Y88013D1*
X1071955Y84213D1*
X1072737Y80413D1*
X1072267Y76613D1*
X1071951Y72813D1*
X1072152Y69013D1*
X1072339Y65214D1*
X1072077Y61414D1*
X1071878Y57614D1*
X1072247Y53814D1*
X1072782Y50014D1*
X1073046Y46214D1*
X1071816Y42415D1*
X1070192Y38615D1*
X1134790Y91812D2*
X1131751Y88013D1*
X1129227Y84213D1*
X1128445Y80413D1*
X1128915Y76613D1*
X1129231Y72813D1*
X1129030Y69013D1*
X1128858Y65214D1*
X1129238Y61414D1*
X1129789Y57614D1*
X1129845Y53814D1*
X1129373Y50014D1*
X1129116Y46214D1*
X1129755Y42415D1*
X1130990Y38615D1*
X1168988Y88013D2*
X1167379Y84213D1*
X1166395Y80413D1*
X1166894Y76613D1*
X1167222Y72813D1*
X1167026Y69013D1*
X1166855Y65214D1*
X1167236Y61414D1*
X1167787Y57614D1*
X1167843Y53814D1*
X1167372Y50014D1*
X1167114Y46214D1*
X1167753Y42415D1*
X1168988Y38615D1*
X1180388Y88013D2*
X1181865Y84213D1*
X1181468Y80413D1*
X1179203Y76613D1*
X1176588Y72813D1*
X1179481Y69013D1*
X1181690Y65214D1*
X1181416Y61414D1*
X1179182Y57614D1*
X1176588Y53814D1*
X1279184Y88013D2*
X1277574Y84213D1*
X1276591Y80413D1*
X1277089Y76613D1*
X1277417Y72813D1*
X1277222Y69013D1*
X1277051Y65214D1*
X1277432Y61414D1*
X1277982Y57614D1*
X1278039Y53814D1*
X1277567Y50014D1*
X1277309Y46214D1*
X1277948Y42415D1*
X1279184Y38615D1*
X1290583Y88013D2*
X1292060Y84213D1*
X1291663Y80413D1*
X1289398Y76613D1*
X1286783Y72813D1*
X1289677Y69013D1*
X1291886Y65214D1*
X1291611Y61414D1*
X1289378Y57614D1*
X1286783Y53814D1*
X1697166Y91812D2*
X1700204Y88013D1*
X1702728Y84213D1*
X1703510Y80413D1*
X1703040Y76613D1*
X1702725Y72813D1*
X1702925Y69013D1*
X1703113Y65214D1*
X1702851Y61414D1*
X1702651Y57614D1*
X1703021Y53814D1*
X1703556Y50014D1*
X1703820Y46214D1*
X1702589Y42415D1*
X1700966Y38615D1*
X1765563Y91812D2*
X1762525Y88013D1*
X1760001Y84213D1*
X1759219Y80413D1*
X1759689Y76613D1*
X1760004Y72813D1*
X1759804Y69013D1*
X1759631Y65214D1*
X1760012Y61414D1*
X1760562Y57614D1*
X1760618Y53814D1*
X1760147Y50014D1*
X1759889Y46214D1*
X1760528Y42415D1*
X1761763Y38615D1*
X1252585Y53814D2*
X1254183Y50014D1*
X1255134Y46214D1*
X1254081Y42415D1*
X1252585Y38615D1*
X1362780Y53814D2*
X1364378Y50014D1*
X1365329Y46214D1*
X1364276Y42415D1*
X1362780Y38615D1*
X1408378Y53814D2*
X1406780Y50014D1*
X1405829Y46214D1*
X1406882Y42415D1*
X1408378Y38615D1*
X1453976Y53814D2*
X1455757Y50014D1*
X1457776Y46214D1*
X1455757Y42415D1*
X1453976Y38615D1*
X1522373Y53814D2*
X1520775Y50014D1*
X1519824Y46214D1*
X1520877Y42415D1*
X1522373Y38615D1*
X1567971Y53814D2*
X1569753Y50014D1*
X1571771Y46214D1*
X1569753Y42415D1*
X1567971Y38615D1*
X2502984Y1026400D2*
X2491682Y1018801D1*
X2481465Y1011201D1*
X2476241Y1003601D1*
X2474592Y996002D1*
X2474587Y988402D1*
X2476237Y980802D1*
X2479011Y973203D1*
X2482390Y965603D1*
X2486287Y958003D1*
X2491042Y950404D1*
X2497179Y942804D1*
X2504939Y935204D1*
X2514569Y927604D1*
X2526489Y920005D1*
X2541478Y912405D1*
X2559520Y904805D1*
X2578981Y897206D1*
X2533383Y1026400D2*
X2536300Y1018801D1*
X2539862Y1011201D1*
X2544657Y1003601D1*
X2551464Y996002D1*
X2560602Y988402D1*
X2572462Y980802D1*
X2587475Y973203D1*
X2603811Y965603D1*
X2617122Y958003D1*
X2626758Y950404D1*
X2629607Y942804D1*
X2630812Y935204D1*
X2630934Y927604D1*
X2628113Y920005D1*
X2624579Y912405D1*
X2628616Y904805D1*
X2632179Y897206D1*
X2571381Y889606D1*
X2616979Y882006D1*
Y874407D1*
Y866807D1*
X2510584Y1026400D2*
X2510873Y1018801D1*
X2511877Y1011201D1*
X2513995Y1003601D1*
X2517210Y996002D1*
X2521650Y988402D1*
X2527656Y980802D1*
X2535366Y973203D1*
X2544964Y965603D1*
X2556718Y958003D1*
X2570892Y950404D1*
X2586580Y942804D1*
X2525783Y1026400D2*
X2526072Y1018801D1*
X2527076Y1011201D1*
X2529195Y1003601D1*
X2532439Y996002D1*
X2537117Y988402D1*
X2543883Y980802D1*
X2553009Y973203D1*
X2564972Y965603D1*
X2581032Y958003D1*
X2601632Y950404D1*
X2624579Y942804D1*
X2487785Y1011201D2*
X2487814Y1003601D1*
X2488082Y996002D1*
X2489080Y988402D1*
X2491197Y980802D1*
X2494411Y973203D1*
X2498851Y965603D1*
X2504887Y958003D1*
X2512832Y950404D1*
X2523088Y942804D1*
X2535381Y935204D1*
X2548582Y927604D1*
X2502984Y1011201D2*
X2503273Y1003601D1*
X2504277Y996002D1*
X2506396Y988402D1*
X2509610Y980802D1*
X2514021Y973203D1*
X2519789Y965603D1*
X2526768Y958003D1*
X2535229Y950404D1*
X2545725Y942804D1*
X2558122Y935204D1*
X2571381Y927604D1*
X2449786Y996002D2*
X2446568Y988402D1*
X2444600Y980802D1*
X2445916Y973203D1*
X2447814Y965603D1*
X2450213Y958003D1*
X2453669Y950404D1*
X2458032Y942804D1*
X2462696Y935204D1*
X2467890Y927604D1*
X2474266Y920005D1*
X2482352Y912405D1*
X2492689Y904805D1*
X2505239Y897206D1*
X2519723Y889606D1*
X2536716Y882006D1*
X2556885Y874407D1*
X2578981Y866807D1*
X2457386Y996002D2*
X2457675Y988402D1*
X2458679Y980802D1*
X2460798Y973203D1*
X2464012Y965603D1*
X2468423Y958003D1*
X2474162Y950404D1*
X2480873Y942804D1*
X2488338Y935204D1*
X2496804Y927604D1*
X2506756Y920005D1*
X2518902Y912405D1*
X2534858Y904805D1*
X2556737Y897206D1*
X2585067Y889606D1*
X2616979Y882006D1*
Y874407D1*
Y866807D1*
X2571381Y920005D2*
X2594180Y927604D2*
X2601780Y920005D1*
X2176198Y897206D2*
X2159303Y889606D1*
X2146347Y882006D1*
X2136710Y874407D1*
X2133527Y866807D1*
X2131831Y859207D1*
X2131077Y851608D1*
X2130774Y844008D1*
X2130661Y836408D1*
X2130620Y828809D1*
X2130606Y821209D1*
X2130602Y813609D1*
X2130600Y806010D1*
Y798410D1*
Y790810D1*
Y783211D1*
Y775611D1*
Y768011D1*
Y760412D1*
Y752812D1*
Y745212D1*
Y737612D1*
Y730013D1*
Y722413D1*
Y714813D1*
Y707214D1*
Y699614D1*
Y692014D1*
X2130629Y684415D1*
X2130919Y676815D1*
X2132093Y669215D1*
X2134691Y661616D1*
X2138199Y654016D1*
X2449786Y897206D2*
X2466711Y889606D1*
X2479934Y882006D1*
X2489065Y874407D1*
X2495174Y866807D1*
X2499095Y859207D1*
X2501244Y851608D1*
X2502268Y844008D1*
X2502708Y836408D1*
X2502883Y828809D1*
X2502949Y821209D1*
X2502972Y813609D1*
X2502980Y806010D1*
X2502983Y798410D1*
X2502984Y790810D1*
Y783211D1*
Y775611D1*
Y768011D1*
Y760412D1*
Y752812D1*
Y745212D1*
Y737612D1*
Y730013D1*
Y722413D1*
Y714813D1*
Y707214D1*
X2502954Y699614D1*
X2502687Y692014D1*
X2501689Y684415D1*
X2499578Y676815D1*
X2496436Y669215D1*
X2492397Y661616D1*
X2487785Y654016D1*
X2183797Y882006D2*
X2170121Y874407D1*
X2158344Y866807D1*
X2149198Y859207D1*
X2142481Y851608D1*
X2137561Y844008D1*
X2134160Y836408D1*
X2132219Y828809D1*
X2131273Y821209D1*
X2130861Y813609D1*
X2130696Y806010D1*
X2130634Y798410D1*
X2130611Y790810D1*
X2130603Y783211D1*
X2130601Y775611D1*
X2130600Y768011D1*
Y760412D1*
Y752812D1*
Y745212D1*
Y737612D1*
Y730013D1*
X2130629Y722413D1*
X2130897Y714813D1*
X2131895Y707214D1*
X2134012Y699614D1*
X2137255Y692014D1*
X2141963Y684415D1*
X2148965Y676815D1*
X2158704Y669215D1*
X2170746Y661616D1*
X2183797Y654016D1*
X2442187Y882006D2*
X2455989Y874407D1*
X2468522Y866807D1*
X2480185Y859207D1*
X2457386Y851608D1*
X2176198Y866807D2*
X2168917Y859207D1*
X2162588Y851608D1*
X2158076Y844008D1*
X2155510Y836408D1*
X2154270Y828809D1*
X2153735Y821209D1*
X2153522Y813609D1*
X2153442Y806010D1*
X2153413Y798410D1*
X2153404Y790810D1*
X2153400Y783211D1*
X2153399Y775611D1*
Y768011D1*
Y760412D1*
Y752812D1*
Y745212D1*
Y737612D1*
Y730013D1*
Y722413D1*
X2153428Y714813D1*
X2153725Y707214D1*
X2155020Y699614D1*
X2157481Y692014D1*
X2164367Y684415D1*
X2173437Y676815D1*
X2183797Y669215D1*
X2419388Y866807D2*
X2431025Y859207D1*
X2442187Y851608D1*
X2206596Y859207D2*
X2192920Y851608D1*
X2181173Y844008D1*
X2172294Y836408D1*
X2165547Y828809D1*
X2163196Y821209D1*
X2161930Y813609D1*
X2161362Y806010D1*
X2161132Y798410D1*
X2161045Y790810D1*
X2161014Y783211D1*
X2161004Y775611D1*
X2161000Y768011D1*
X2160999Y760412D1*
Y752812D1*
X2160998Y745212D1*
Y737612D1*
X2161028Y730013D1*
X2161325Y722413D1*
X2162620Y714813D1*
X2165080Y707214D1*
X2172069Y699614D1*
X2181658Y692014D1*
X2193606Y684415D1*
X2206596Y676815D1*
X2381389Y859207D2*
X2400882Y851608D1*
X2416100Y844008D1*
X2427444Y836408D1*
X2431172Y828809D1*
X2433153Y821209D1*
X2434032Y813609D1*
X2434385Y806010D1*
X2434516Y798410D1*
X2434563Y790810D1*
X2434579Y783211D1*
X2434584Y775611D1*
X2434586Y768011D1*
X2434587Y760412D1*
Y752812D1*
Y745212D1*
Y737612D1*
Y730013D1*
X2434557Y722413D1*
X2434201Y714813D1*
X2433310Y707214D1*
X2428546Y699614D1*
X2416040Y692014D1*
X2399679Y684415D1*
X2381389Y676815D1*
X2480185Y844008D2*
X2479806Y836408D1*
X2478908Y828809D1*
X2473523Y821209D1*
X2465949Y813609D1*
X2458737Y806010D1*
X2453188Y798410D1*
X2451392Y790810D1*
X2450452Y783211D1*
X2450041Y775611D1*
X2449878Y768011D1*
X2449818Y760412D1*
X2449797Y752812D1*
X2449790Y745212D1*
X2449787Y737612D1*
X2449757Y730013D1*
X2449489Y722413D1*
X2448491Y714813D1*
X2446374Y707214D1*
X2443160Y699614D1*
X2438750Y692014D1*
X2433017Y684415D1*
X2426381Y676815D1*
X2419388Y669215D1*
X2495384Y844008D2*
Y836408D1*
Y828809D1*
Y821209D1*
Y813609D1*
Y806010D1*
Y798410D1*
Y790810D1*
Y783211D1*
Y775611D1*
Y768011D1*
Y760412D1*
Y752812D1*
Y745212D1*
Y737612D1*
Y730013D1*
X2495355Y722413D1*
X2495087Y714813D1*
X2494089Y707214D1*
X2491972Y699614D1*
X2488729Y692014D1*
X2484021Y684415D1*
X2477019Y676815D1*
X2467280Y669215D1*
X2455238Y661616D1*
X2442187Y654016D1*
X2214196Y806010D2*
X2208090Y798410D1*
X2203645Y790810D1*
X2201130Y783211D1*
X2200193Y775611D1*
X2200239Y768011D1*
X2203597Y760412D1*
X2208504Y752812D1*
X2214196Y745212D1*
X2252195Y806010D2*
X2256232Y798410D1*
X2259794Y790810D1*
X2274994Y806010D2*
Y798410D1*
Y790810D1*
Y783211D1*
Y775611D1*
Y768011D1*
Y760412D1*
Y752812D1*
Y745212D1*
X2320592Y806010D2*
X2324070Y798410D1*
X2326579Y790810D1*
X2326239Y783211D1*
X2321392Y775611D1*
X2311109Y768011D1*
X2301671Y760412D1*
X2295113Y752812D1*
X2290193Y745212D1*
X2343391Y806010D2*
X2343361Y798410D1*
X2343094Y790810D1*
X2342155Y783211D1*
X2340602Y775611D1*
X2339627Y768011D1*
X2340180Y760412D1*
X2341698Y752812D1*
X2343391Y745212D1*
X2388989Y806010D2*
X2387592Y798410D1*
X2384925Y790810D1*
X2381389Y783211D1*
X2387206Y775611D1*
X2391713Y768011D1*
X2391599Y760412D1*
X2390434Y752812D1*
X2388989Y745212D1*
X2229396Y798410D2*
X2223319Y790810D1*
X2218271Y783211D1*
X2216794Y775611D1*
X2218842Y768011D1*
X2221796Y760412D1*
X2236995Y798410D2*
X2244595Y790810D1*
X2290193Y798410D2*
Y790810D1*
Y783211D1*
X2320592Y798410D2*
X2312992Y790810D1*
X2305392Y783211D1*
X2366190Y798410D2*
X2358590Y790810D1*
X2366190Y798410D2*
X2373789Y790810D1*
X2229396Y775611D2*
X2236520Y768011D1*
X2244595Y760412D1*
X2259794Y775611D2*
Y768011D1*
Y760412D1*
Y752812D1*
Y745212D1*
X2343391Y775611D2*
X2350990Y768011D1*
X2358590Y760412D1*
Y775611D2*
X2366190Y768011D1*
X2373789Y760412D1*
X2141043Y75702D2*
D52*
X2102072Y177789D1*
X2063214Y75702D1*
X2077814Y109731D2*
X2126443D1*
X2172416Y158248D2*
X2182186Y163189D1*
X2196786Y177677D1*
Y75702D1*
X390719Y1428572D2*
X381060Y1423743D1*
X371289Y1413972D1*
X366460Y1404314D1*
Y1384885D1*
X371289Y1375114D1*
X381060Y1365456D1*
X390719Y1360514D1*
X405319Y1355685D1*
X429689D1*
X444177Y1360514D1*
X453948Y1365456D1*
X463606Y1375114D1*
X468548Y1384885D1*
Y1404314D1*
X463606Y1413972D1*
X453948Y1423743D1*
X444177Y1428572D1*
X386002Y1459945D2*
X381060Y1469716D1*
X366573Y1484316D1*
X468548D1*
X388719Y1109729D2*
X379060Y1104899D1*
X369289Y1095129D1*
X364460Y1085470D1*
Y1066041D1*
X369289Y1056270D1*
X379060Y1046612D1*
X388719Y1041670D1*
X403319Y1036841D1*
X427689D1*
X442177Y1041670D1*
X451948Y1046612D1*
X461606Y1056270D1*
X466548Y1066041D1*
Y1085470D1*
X461606Y1095128D1*
X451948Y1104899D1*
X442177Y1109728D1*
X388831Y1146043D2*
X384002D1*
X374231Y1150872D1*
X369402Y1155701D1*
X364573Y1165472D1*
Y1184901D1*
X369402Y1194559D1*
X374231Y1199389D1*
X384002Y1204330D1*
X393660D1*
X403431Y1199389D1*
X417919Y1189730D1*
X466548Y1141101D1*
Y1209159D1*
X195702Y1015531D2*
X190872Y1025189D1*
X181102Y1034960D1*
X171443Y1039789D1*
X152014D1*
X142243Y1034960D1*
X132585Y1025189D1*
X127643Y1015531D1*
X122814Y1000931D1*
Y976560D1*
X127643Y962072D1*
X132585Y952302D1*
X142243Y942643D1*
X152014Y937702D1*
X171443D1*
X181102Y942643D1*
X190872Y952302D1*
X195702Y962072D1*
X236845Y1039677D2*
X290191D1*
X261103Y1000819D1*
X275703D1*
X285362Y995989D1*
X290191Y991160D1*
X295133Y976560D1*
Y966902D1*
X290191Y952302D1*
X280533Y942531D1*
X265933Y937702D1*
X251333D1*
X236845Y942531D1*
X232016Y947472D1*
X227074Y957131D1*
X2394443Y1805789D2*
Y1728072D1*
X2389614Y1713472D1*
X2384672Y1708643D1*
X2375014Y1703702D1*
X2365243D1*
X2355584Y1708643D1*
X2350755Y1713472D1*
X2345814Y1728072D1*
Y1737731D1*
X2425816Y1786248D2*
X2435586Y1791189D1*
X2450186Y1805677D1*
Y1703702D1*
X170099Y651160D2*
X213787D1*
X228387Y656102D1*
X233328Y660931D1*
X238158Y670589D1*
Y680360D1*
X233328Y690019D1*
X228387Y694960D1*
X213787Y699789D1*
X170099D1*
Y597702D1*
X204128Y651160D2*
X238158Y597702D1*
X269530Y680248D2*
X279301Y685189D1*
X293901Y699677D1*
Y597702D1*
X2057840Y1143726D2*
Y1187414D1*
X2052899Y1202014D1*
X2048069Y1206956D1*
X2038411Y1211785D1*
X2028640D1*
X2018982Y1206956D1*
X2014040Y1202014D1*
X2009211Y1187414D1*
Y1143726D1*
X2111298D1*
X2057840Y1177756D2*
X2111299Y1211785D1*
X2023811Y1301445D2*
X2014152Y1296616D1*
X2009323Y1282016D1*
Y1272357D1*
X2014152Y1257757D1*
X2028752Y1247986D1*
X2053011Y1243157D1*
X2077269D1*
X2096699Y1247986D1*
X2106469Y1257757D1*
X2111298Y1272357D1*
Y1277186D1*
X2106469Y1291674D1*
X2096699Y1301445D1*
X2082099Y1306274D1*
X2077269D1*
X2062669Y1301445D1*
X2053011Y1291674D1*
X2048182Y1277186D1*
Y1272357D1*
X2053011Y1257757D1*
X2062669Y1247986D1*
X2077269Y1243157D1*
X135227Y305160D2*
X178915D1*
X193515Y310102D1*
X198457Y314931D1*
X203286Y324589D1*
Y334360D1*
X198457Y344019D1*
X193515Y348960D1*
X178915Y353789D1*
X135227D1*
Y251702D1*
X169257Y305160D2*
X203286Y251702D1*
X234658Y334248D2*
X244429Y339189D1*
X259029Y353677D1*
Y251702D1*
X290402Y334248D2*
X300173Y339189D1*
X314773Y353677D1*
Y251702D1*
X2365840Y1113384D2*
Y1157072D1*
X2360899Y1171672D1*
X2356069Y1176613D1*
X2346411Y1181442D1*
X2336640D1*
X2326982Y1176613D1*
X2322040Y1171672D1*
X2317211Y1157072D1*
Y1113384D1*
X2419298D1*
X2365840Y1147413D2*
X2419299Y1181442D1*
X2336752Y1212815D2*
X2331811Y1222586D1*
X2317323Y1237186D1*
X2419298Y1237185D1*
X2341582Y1273500D2*
X2336752D1*
X2326982Y1278329D1*
X2322152Y1283158D1*
X2317323Y1292929D1*
Y1312358D1*
X2322152Y1322016D1*
X2326982Y1326846D1*
X2336752Y1331787D1*
X2346411D1*
X2356182Y1326846D1*
X2370669Y1317187D1*
X2419298Y1268558D1*
Y1336616D1*
X740099Y149540D2*
Y76652D1*
X744928Y62052D1*
X754699Y52394D1*
X769299Y47452D1*
X778958D1*
X793558Y52394D1*
X803328Y62052D1*
X808158Y76652D1*
Y149540D1*
X839530Y129998D2*
X849301Y134940D1*
X863901Y149428D1*
Y47452D1*
X85807Y1588714D2*
D53*
X112480D1*
X97936Y1569285D1*
X105236D1*
X110065Y1566870D1*
X112480Y1564455D1*
X114951Y1557155D1*
Y1552326D1*
X112480Y1545026D1*
X107651Y1540141D1*
X100351Y1537726D1*
X93051D1*
X85807Y1540141D1*
X83392Y1542612D1*
X80922Y1547441D1*
X133052Y1542612D2*
X130637Y1540141D1*
X133052Y1537726D1*
X135522Y1540141D1*
X133052Y1542612D1*
X156094Y1588714D2*
X182767D1*
X168223Y1569285D1*
X175523D1*
X180353Y1566870D1*
X182767Y1564455D1*
X185238Y1557155D1*
Y1552326D1*
X182767Y1545026D1*
X177938Y1540141D1*
X170638Y1537726D1*
X163338D1*
X156094Y1540141D1*
X153680Y1542612D1*
X151209Y1547441D1*
X200924Y1588770D2*
X220353Y1537726D1*
X239783Y1588770D1*
X381365Y1576641D2*
X378951Y1581470D1*
X374065Y1586355D1*
X369236Y1588770D1*
X359522D1*
X354636Y1586355D1*
X349807Y1581470D1*
X347336Y1576641D1*
X344922Y1569341D1*
Y1557155D1*
X347336Y1549912D1*
X349807Y1545026D1*
X354636Y1540197D1*
X359522Y1537726D1*
X369236D1*
X374065Y1540197D1*
X378951Y1545026D1*
X381365Y1549912D1*
Y1557155D1*
X369236D1*
X431081Y1588770D2*
Y1537726D1*
X397052Y1588770D1*
Y1537726D1*
X446767Y1588770D2*
Y1537726D1*
X463782D1*
X471082Y1540197D1*
X475967Y1545026D1*
X478382Y1549912D1*
X480796Y1557155D1*
Y1569341D1*
X478382Y1576641D1*
X475967Y1581470D1*
X471082Y1586355D1*
X463782Y1588770D1*
X446767D1*
X647936D2*
Y1537726D1*
X630922Y1588770D2*
X664951D1*
X680637Y1571755D2*
X707366Y1537726D1*
Y1571755D2*
X680637Y1537726D1*
X883922Y1564455D2*
X905765D1*
X913065Y1566926D1*
X915536Y1569341D1*
X917951Y1574170D1*
Y1579055D1*
X915536Y1583885D1*
X913065Y1586355D1*
X905765Y1588770D1*
X883922D1*
Y1537726D1*
X900936Y1564455D2*
X917951Y1537726D1*
X933637Y1571755D2*
X960366Y1537726D1*
Y1571755D2*
X933637Y1537726D1*
X1063522Y1588770D2*
X1058636Y1586355D1*
X1053807Y1581470D1*
X1051336Y1576641D1*
X1048922Y1569341D1*
Y1557155D1*
X1051336Y1549912D1*
X1053807Y1545026D1*
X1058636Y1540197D1*
X1063522Y1537726D1*
X1073236D1*
X1078065Y1540197D1*
X1082951Y1545026D1*
X1085365Y1549912D1*
X1087780Y1557155D1*
Y1569341D1*
X1085365Y1576641D1*
X1082951Y1581470D1*
X1078065Y1586355D1*
X1073236Y1588770D1*
X1063522D1*
X1103466Y1571755D2*
Y1537726D1*
Y1562041D2*
X1110766Y1569341D1*
X1115652Y1571755D1*
X1122896D1*
X1127781Y1569341D1*
X1130196Y1562041D1*
Y1537726D1*
X1145882D2*
X1179911Y1588714D1*
X1210197Y1588770D2*
X1205312Y1586355D1*
X1200483Y1581470D1*
X1198012Y1576641D1*
X1195597Y1569341D1*
Y1557155D1*
X1198012Y1549912D1*
X1200483Y1545026D1*
X1205312Y1540197D1*
X1210197Y1537726D1*
X1219912D1*
X1224741Y1540197D1*
X1229627Y1545026D1*
X1232041Y1549912D1*
X1234456Y1557155D1*
Y1569341D1*
X1232041Y1576641D1*
X1229627Y1581470D1*
X1224741Y1586355D1*
X1219912Y1588770D1*
X1210197D1*
X1269571D2*
X1264742D1*
X1259857Y1586355D1*
X1257442Y1579055D1*
Y1537726D1*
X1250142Y1571755D2*
X1267157D1*
X1304687Y1588770D2*
X1299858D1*
X1294972Y1586355D1*
X1292558Y1579055D1*
Y1537726D1*
X1285258Y1571755D2*
X1302272D1*
X1345922Y1588770D2*
X1358107Y1537726D1*
X1370236Y1588770D1*
X1382365Y1537726D1*
X1394551Y1588770D1*
X1439381Y1571755D2*
Y1537726D1*
Y1564455D2*
X1434552Y1569341D1*
X1429666Y1571755D1*
X1422422D1*
X1417537Y1569341D1*
X1412708Y1564455D1*
X1410237Y1557155D1*
Y1552326D1*
X1412708Y1545026D1*
X1417537Y1540197D1*
X1422422Y1537726D1*
X1429666D1*
X1434552Y1540197D1*
X1439381Y1545026D1*
X1455067Y1588770D2*
Y1537726D1*
X1479382Y1571755D2*
X1455067Y1547441D1*
X1464782Y1557155D2*
X1481796Y1537726D1*
X1497483Y1557155D2*
X1526627D1*
Y1562041D1*
X1524212Y1566926D1*
X1521797Y1569341D1*
X1516912Y1571755D1*
X1509612D1*
X1504783Y1569341D1*
X1499897Y1564455D1*
X1497483Y1557155D1*
Y1552326D1*
X1499897Y1545026D1*
X1504783Y1540197D1*
X1509612Y1537726D1*
X1516912D1*
X1521797Y1540197D1*
X1526627Y1545026D1*
X1609922Y1578999D2*
X1614807Y1581470D1*
X1622107Y1588714D1*
Y1537726D1*
X1637793Y1562041D2*
X1659693D1*
X1666937Y1564455D1*
X1669408Y1566926D1*
X1671822Y1571755D1*
Y1579055D1*
X1669408Y1583885D1*
X1666937Y1586355D1*
X1659693Y1588770D1*
X1637793D1*
Y1537726D1*
X1687509Y1562041D2*
X1709409D1*
X1716653Y1564455D1*
X1719123Y1566926D1*
X1721538Y1571755D1*
Y1579055D1*
X1719123Y1583885D1*
X1716653Y1586355D1*
X1709409Y1588770D1*
X1687509D1*
Y1537726D1*
X1771253Y1581470D2*
X1766424Y1586355D1*
X1759124Y1588770D1*
X1749410D1*
X1742110Y1586355D1*
X1737224Y1581470D1*
Y1576641D1*
X1739695Y1571755D1*
X1742110Y1569341D1*
X1746939Y1566926D1*
X1761539Y1562041D1*
X1766424Y1559626D1*
X1768839Y1557155D1*
X1771253Y1552326D1*
Y1545026D1*
X1766424Y1540197D1*
X1759124Y1537726D1*
X1749410D1*
X1742110Y1540197D1*
X1737224Y1545026D1*
X1872480Y1588770D2*
X1840922D1*
Y1537726D1*
X1872480D1*
X1840922Y1564455D2*
X1860351D1*
X1888166Y1571755D2*
X1914896Y1537726D1*
Y1571755D2*
X1888166Y1537726D1*
X1937882Y1588770D2*
Y1547441D1*
X1940296Y1540197D1*
X1945182Y1537726D1*
X1950011D1*
X1930582Y1571755D2*
X1947596D1*
X1965697Y1588770D2*
Y1537726D1*
X1981384Y1571755D2*
Y1537726D1*
Y1562041D2*
X1988684Y1569341D1*
X1993569Y1571755D1*
X2000813D1*
X2005698Y1569341D1*
X2008113Y1562041D1*
Y1537726D1*
X2031099Y1588770D2*
Y1547441D1*
X2033514Y1540197D1*
X2038399Y1537726D1*
X2043228D1*
X2023799Y1571755D2*
X2040814D1*
X2104922D2*
Y1537726D1*
Y1562041D2*
X2112222Y1569341D1*
X2117107Y1571755D1*
X2124351D1*
X2129236Y1569341D1*
X2131651Y1562041D1*
Y1537726D1*
X2147337Y1564455D2*
X2169181D1*
X2176481Y1566926D1*
X2178952Y1569341D1*
X2181366Y1574170D1*
Y1579055D1*
X2178952Y1583885D1*
X2176481Y1586355D1*
X2169181Y1588770D1*
X2147337D1*
Y1537726D1*
X2164352Y1564455D2*
X2181366Y1537726D1*
X2231082Y1581470D2*
X2226253Y1586355D1*
X2218953Y1588770D1*
X2209238D1*
X2201938Y1586355D1*
X2197053Y1581470D1*
Y1576641D1*
X2199523Y1571755D1*
X2201938Y1569341D1*
X2206767Y1566926D1*
X2221367Y1562041D1*
X2226253Y1559626D1*
X2228667Y1557155D1*
X2231082Y1552326D1*
Y1545026D1*
X2226253Y1540197D1*
X2218953Y1537726D1*
X2209238D1*
X2201938Y1540197D1*
X2197053Y1545026D1*
X2263783Y1588770D2*
Y1537726D1*
X2246768Y1588770D2*
X2280797D1*
M02*
